<?xml version="1.0" encoding="UTF-8"?>
<svg width="340px" height="100px" viewBox="0 0 340 100" version="1.1" xmlns="http://www.w3.org/2000/svg" xmlns:xlink="http://www.w3.org/1999/xlink">
    <!-- Generator: Sketch 47.1 (45422) - http://www.bohemiancoding.com/sketch -->
    <title>Combined Shape</title>
    <desc>Created with Sketch.</desc>
    <defs></defs>
    <g id="Page-1" stroke="none" stroke-width="1" fill="none" fill-rule="evenodd">
        <path d="M48.8346415,61.059236 C48.1880158,63.5949368 46.8895285,65.7437914 44.9486041,67.5000417 C43.0034911,69.2610032 40.3285025,70.5513629 36.9231148,71.3732148 C33.5135385,72.1950666 29.1960682,72.6080864 23.9686096,72.6080864 C22.048105,72.6080864 20.031261,72.5143849 17.9206956,72.3322164 C15.8101301,72.1479541 13.7341212,71.8987812 11.6947631,71.5778925 C9.65592858,71.2585743 7.68830145,70.8821976 5.79240527,70.4487623 C3.89860342,70.0153271 1.96762713,69.408099 0,68.6312658 L5.25270921,58.7477164 C9.23456242,59.7517366 9.58419763,59.8484441 13.2063489,60.3740105 C16.8285002,60.9016708 20.1762937,61.1613131 23.2465879,61.1613131 C25.9828357,61.1613131 28.1405237,61.0367267 29.7259348,60.7849364 C31.308728,60.5357635 32.5197768,60.1122742 33.3580342,59.517086 C34.1989094,58.9245151 34.7507665,58.0796305 35.0125583,56.9819086 C35.2785388,55.8857572 35.411529,54.4236985 35.411529,52.5978264 C35.411529,50.8164494 35.3256613,49.4098788 35.1602089,48.3812553 C34.9900442,47.3526318 34.474838,46.4878553 33.6119722,45.7780265 C32.7485829,45.0708152 31.3558505,44.4206623 29.4374402,43.8254741 C27.5169356,43.2302859 24.7597444,42.5209806 21.1601072,41.7006992 C16.6483874,40.6516603 13.0367078,39.5659783 10.3287335,38.4457471 C7.6165705,37.3249925 5.55312756,35.9346495 4.13788112,34.2658192 C2.72263467,32.5975123 1.8346369,30.5543991 1.47493498,28.1312449 C1.11470947,25.7143723 0.93459671,22.720633 0.93459671,19.1547383 C0.93459671,15.9589386 1.34403908,13.1714475 2.15768798,10.7954058 C2.9739548,8.42145801 4.40176725,6.44430235 6.44060175,4.86760316 C8.47995984,3.29299786 11.1795568,2.10314485 14.537822,1.30327886 C17.8960871,0.50393634 21.9742797,0.10505029 26.7744941,0.10505029 C30.2762211,0.10505029 33.8512499,0.323861798 37.4980096,0.757297034 C41.1421514,1.19125574 44.7417886,1.84350249 48.2948268,2.71037296 L43.7156507,13.310405 C39.8296132,12.6257029 39.6698343,12.5317641 36.0948056,12.1674273 C32.5197768,11.80152 29.2677991,11.6177811 26.3409669,11.6177811 C23.798445,11.6177811 21.806733,11.7690647 20.3689724,12.0632562 C18.9291176,12.3616356 17.8369222,12.7830309 17.0944807,13.3311067 C16.3499448,13.8770885 15.8692951,14.6785249 15.6546258,15.7275638 C15.4378622,16.7807905 15.3315747,18.0360776 15.3315747,19.4981363 C15.3315747,21.3261023 15.4027821,22.8232336 15.5441496,23.9863895 C15.6891823,25.1500689 16.1106671,26.1132583 16.8059861,26.8639179 C17.5013051,27.6182418 18.6055429,28.2683947 20.1171287,28.8185643 C21.6287146,29.36664 23.8701759,29.9838141 26.846225,30.6690396 C32.0286554,31.8552283 36.1665365,33.0105321 39.2609156,34.1286694 C42.3552946,35.2473301 44.6951897,36.5848024 46.2779828,38.1368984 C47.8628704,39.6905648 48.8445896,41.5740188 49.2294235,43.7904014 C49.6116396,46.0073075 49.8058891,48.8068385 49.8058891,52.1848066 C49.8058891,55.5669624 49.482838,58.5235352 48.8346415,61.059236 Z M73.2179294,46.5974287 C73.2179294,49.2472465 73.444641,51.5112651 73.9027767,53.3821559 C74.3572472,55.2551405 75.148382,56.7397085 76.2777519,57.83586 C77.4045037,58.9335818 78.9998629,59.7433938 81.0633059,60.2689602 C83.1251781,60.7966205 85.8352467,61.0562628 89.1950826,61.0562628 C92.6517815,61.0562628 96.2718384,60.7720173 100.063631,60.2014322 C103.853852,59.6308472 108.1242,58.7519368 112.875198,57.5636543 L114.675278,68.2519159 C110.690807,69.668956 106.432502,70.7284643 101.898268,71.4398635 C97.3640338,72.1491687 92.7931491,72.5030361 88.1871842,72.5030361 C82.71783,72.5030361 78.0877803,71.895808 74.2975587,70.6855396 C70.5057663,69.4747477 67.4585099,67.7389129 65.1552656,65.4769881 C62.852545,63.213493 61.1959265,60.4982411 60.1895989,57.3223334 C59.1811769,54.1469492 58.678013,50.6197914 58.678013,46.7366724 L58.678013,26.247435 C58.678013,22.638092 59.1586628,19.2664056 60.1178679,16.1376105 C61.077073,13.0093387 62.6724322,10.2223711 64.9039455,7.77670757 C67.1354588,5.33104401 70.1460644,3.4271745 73.9378568,2.05515306 C77.7254605,0.687319402 82.3827365,0 87.8986897,0 C93.3696146,0 97.9410229,0.719774697 101.609773,2.15932409 C105.283236,3.5967796 108.160851,5.5273462 110.248902,7.95050044 C112.337477,10.3694669 113.809794,13.1689979 114.675278,16.3422882 C115.538144,19.5197663 115.971671,22.9102978 115.971671,26.5196407 L115.971671,41.5260271 L73.2179294,41.5260271 L73.2179294,46.5974287 Z M73.2179294,30.3577411 L101.861617,30.3577411 L101.861617,25.4234893 C101.861617,20.7179949 100.879898,17.1787973 98.9122705,14.8027556 C96.942549,12.4267138 93.2737988,11.2384313 87.8986897,11.2384313 C82.3827365,11.2384313 78.5558641,12.4267138 76.4185958,14.8027556 C74.283422,17.1787973 73.2179294,20.7179949 73.2179294,25.4234893 L73.2179294,30.3577411 Z M140.107827,46.5974287 C140.107827,49.2472465 140.336633,51.5112651 140.794769,53.3821559 C141.247145,55.2551405 142.03828,56.7397085 143.16765,57.83586 C144.294402,58.9335818 145.891855,59.7433938 147.953204,60.2689602 C150.01717,60.7966205 152.726716,61.0562628 156.087075,61.0562628 C159.539585,61.0562628 163.163831,60.7720173 166.955623,60.2014322 C170.743227,59.6308472 175.016193,58.7519368 179.765096,57.5636543 L181.566747,68.2519159 C177.582799,69.668956 173.324494,70.7284643 168.79026,71.4398635 C164.256026,72.1491687 159.684618,72.5030361 155.079177,72.5030361 C149.609822,72.5030361 144.977678,71.895808 141.187457,70.6855396 C137.397759,69.4747477 134.350502,67.7389129 132.049352,65.4769881 C129.744537,63.213493 128.090013,60.4982411 127.081591,57.3223334 C126.073169,54.1469492 125.570005,50.6197914 125.570005,46.7366724 L125.570005,26.247435 C125.570005,22.638092 126.050655,19.2664056 127.00986,16.1376105 C127.969065,13.0093387 129.56233,10.2223711 131.795938,7.77670757 C134.026928,5.33104401 137.037533,3.4271745 140.827755,2.05515306 C144.617453,0.687319402 149.272635,0 154.790682,0 C160.261607,0 164.830921,0.719774697 168.50386,2.15932409 C172.175228,3.5967796 175.052843,5.5273462 177.1388,7.95050044 C179.227375,10.3694669 180.701787,13.1689979 181.566747,16.3422882 C182.430136,19.5197663 182.863663,22.9102978 182.863663,26.5196407 L182.863663,41.5260271 L140.107827,41.5260271 L140.107827,46.5974287 Z M140.107827,30.3577411 L168.753609,30.3577411 L168.753609,25.4234893 C168.753609,20.7179949 167.769796,17.1787973 165.804263,14.8027556 C163.834541,12.4267138 160.165268,11.2384313 154.790682,11.2384313 C149.272635,11.2384313 145.445762,12.4267138 143.310588,14.8027556 C141.175414,17.1787973 140.107827,20.7179949 140.107827,25.4234893 L140.107827,30.3577411 Z M206.547444,1.4374555 L206.547444,74.762867 C206.547444,77.1839273 206.404505,79.2160476 206.118105,80.8602747 C205.829611,82.5045019 205.122249,84.1277901 203.994974,85.7290925 C202.864033,87.3241132 201.174952,89.1541731 198.918831,91.2093262 C196.662709,93.2639558 193.235331,96.1880732 188.627272,99.981155 L181.000229,90.3869509 C184.215556,87.6450019 186.602574,85.5652456 188.160759,84.1502994 C189.721561,82.7332593 190.848313,81.5146154 191.543632,80.4859919 C192.241046,79.4594623 192.660436,78.4758574 192.805469,77.5393651 C192.948931,76.6007789 193.020138,75.447569 193.020138,74.0776414 L193.020138,1.4374555 L206.547444,1.4374555 Z M302.099355,72.3109217 L277.4726,1.76096151 L291.237089,1.76096151 L308.7363,52.4315298 L325.973719,1.76096151 L340,1.76096151 L306.038798,100 L292.145507,100 L302.099355,72.3109217 Z M269.25705,13.0889066 C270.216255,15.9208928 270.29584,19.1868378 270.29584,22.8877884 L270.29584,71.4074082 L258.572804,71.4074082 L257.997909,67.1049876 C255.78891,68.5670464 252.635366,69.73439 248.532565,70.8551447 C244.429764,71.9738054 240.099727,72.5663763 235.540885,72.5663763 C228.343705,72.5663763 223.20002,70.7897106 220.101452,67.1128397 C217.007073,63.4343984 215.460931,58.6372964 215.460931,52.4702668 C215.460931,45.2070857 217.624902,38.8987185 221.510415,35.88247 C225.396453,32.8667448 230.018649,31.0853679 240.752112,31.0853679 L256.363804,31.0853679 L256.363804,22.3418066 C256.363804,18.135705 255.418736,15.2833033 253.330685,13.7720382 C251.244204,12.2649608 247.534614,11.5127309 242.020232,11.5127309 C240.292406,11.5127309 238.492326,11.5818292 236.621038,11.7168851 C234.751321,11.8540349 232.865896,12.0152645 230.97,12.1974329 C229.074104,12.3796013 227.249415,12.6083588 225.499075,12.8826584 C224.646158,13.0156204 223.735646,13.166904 222.778535,13.3323213 L221.058563,2.47445454 C224.138805,1.82430169 227.280307,1.28617195 230.513959,0.856924494 C234.806821,0.284245571 238.874542,0 242.758485,0 C247.990656,0 252.367291,0.493111102 255.991536,1.47252816 C259.611593,2.456133 262.439992,3.92813769 264.671505,5.8911596 C266.903018,7.85836928 268.297845,10.2548264 269.25705,13.0889066 Z M238.835796,61.3446962 C252.559446,60.0972612 256.363804,55.1509695 256.363804,55.1509695 L256.363804,42.0824783 L239.355191,42.0824783 C239.355191,42.0824783 228.568846,41.5652875 228.568846,51.5395326 C228.568846,51.5395326 227.587127,62.3691319 238.835796,61.3446962 Z" id="Combined-Shape" fill="#FF6600"></path>
    </g>
</svg>