<?xml version="1.0" encoding="UTF-8"?>
<svg width="164px" height="1116px" viewBox="0 0 164 1116" version="1.1" xmlns="http://www.w3.org/2000/svg" xmlns:xlink="http://www.w3.org/1999/xlink">
    <!-- Generator: Sketch 47.1 (45422) - http://www.bohemiancoding.com/sketch -->
    <title>Artboard</title>
    <desc>Created with Sketch.</desc>
    <defs></defs>
    <g id="Page-1" stroke="none" stroke-width="1" fill="none" fill-rule="evenodd">
        <g id="Artboard">
            <g id="Group" transform="translate(0.000000, 2.000000)">
                <path d="M25.5,59.5 L25.5,979.5" id="Line-2" stroke="#FFDC40" stroke-width="5" stroke-linecap="square"></path>
                <polygon id="Line" fill="#FFDC40" fill-rule="nonzero" transform="translate(25.693179, 187.699929) scale(-1, 1) rotate(-180.000000) translate(-25.693179, -187.699929) " points="42.9085408 196.682922 45.3931074 193.548129 25.7844516 178.00675 5.99325012 194.305386 8.53607913 197.393107 25.8325986 183.148915"></polygon>
                <polygon id="Line-Copy-2" fill="#FFDC40" fill-rule="nonzero" transform="translate(25.693179, 577.699929) scale(-1, 1) rotate(-180.000000) translate(-25.693179, -577.699929) " points="42.9085408 586.682922 45.3931074 583.548129 25.7844516 568.00675 5.99325012 584.305386 8.53607913 587.393107 25.8325986 573.148915"></polygon>
                <g id="Circle-Copy" transform="translate(1.000000, 366.000000)">
                    <path d="M25,50 C11.1928813,50 0,38.8071187 0,25 C0,11.1928813 11.1928813,0 25,0 C38.8071187,0 50,11.1928813 50,25 C50,38.8071187 38.8071187,50 25,50 Z" id="Path" fill="#FFFFFF"></path>
                    <path d="M25,40 C33.2842712,40 40,33.2842712 40,25 C40,16.7157288 33.2842712,10 25,10 C16.7157288,10 10,16.7157288 10,25 C10,33.2842712 16.7157288,40 25,40 Z" id="Path" fill="#FF6600"></path>
                </g>
                <g id="Circle" transform="translate(1.000000, 52.000000)">
                    <path d="M25,50 C11.1928813,50 0,38.8071187 0,25 C0,11.1928813 11.1928813,0 25,0 C38.8071187,0 50,11.1928813 50,25 C50,38.8071187 38.8071187,50 25,50 Z" id="Path" fill="#FFFFFF"></path>
                    <path d="M25,40 C33.2842712,40 40,33.2842712 40,25 C40,16.7157288 33.2842712,10 25,10 C16.7157288,10 10,16.7157288 10,25 C10,33.2842712 16.7157288,40 25,40 Z" id="Path" fill="#FF6600"></path>
                </g>
                <g id="Circle-Copy" transform="translate(0.000000, 966.000000)">
                    <path d="M25,50 C11.1928813,50 0,38.8071187 0,25 C0,11.1928813 11.1928813,0 25,0 C38.8071187,0 50,11.1928813 50,25 C50,38.8071187 38.8071187,50 25,50 Z" id="Path" fill="#FFFFFF"></path>
                    <path d="M25,40 C33.2842712,40 40,33.2842712 40,25 C40,16.7157288 33.2842712,10 25,10 C16.7157288,10 10,16.7157288 10,25 C10,33.2842712 16.7157288,40 25,40 Z" id="Path" fill="#FF6600"></path>
                </g>
                <g id="Circle-Copy-2" transform="translate(0.000000, 716.000000)">
                    <path d="M25,50 C11.1928813,50 0,38.8071187 0,25 C0,11.1928813 11.1928813,0 25,0 C38.8071187,0 50,11.1928813 50,25 C50,38.8071187 38.8071187,50 25,50 Z" id="Path" fill="#FFFFFF"></path>
                    <path d="M25,40 C33.2842712,40 40,33.2842712 40,25 C40,16.7157288 33.2842712,10 25,10 C16.7157288,10 10,16.7157288 10,25 C10,33.2842712 16.7157288,40 25,40 Z" id="Path" fill="#FF6600"></path>
                </g>
                <path d="M24.6157227,1013.02588 C25.4399414,1019.21064 38.2363281,1034.54639 41.6914063,1034.61342 C49.7545826,1034.76984 72.3270459,1026.10925 79.7148438,1020.44316 C112.664557,995.172312 145.4375,864.306103 156.597656,776.572032 C168.336888,684.285635 155.101631,682.480426 142.828125,607.614046 C129.517078,526.418832 103.922495,467.733158 102.132812,402.191774 C100.643487,347.65 148.957993,258.639043 156.597656,205.560994 C159.938102,182.352594 167.05355,59.5676658 117.828125,11.5824991 C84.8897914,-20.5259373 48.5489588,22.2013068 27.7851562,59.314359" id="Path-2" stroke="#FFDC40" stroke-width="4" opacity="0.399999976" stroke-dasharray="5"></path>
            </g>
        </g>
    </g>
</svg>