<?xml version="1.0" encoding="UTF-8" standalone="no"?>
<svg width="500px" height="503px" viewBox="0 0 500 503" version="1.1" xmlns="http://www.w3.org/2000/svg" xmlns:xlink="http://www.w3.org/1999/xlink">
    <!-- Generator: Sketch 47.1 (45422) - http://www.bohemiancoding.com/sketch -->
    <title>Group 3</title>
    <desc>Created with Sketch.</desc>
    <defs></defs>
    <g id="Elements" stroke="none" stroke-width="1" fill="none" fill-rule="evenodd" opacity="0.100000001">
        <g id="Components-/-Card" transform="translate(-482.000000, -437.000000)" fill-rule="nonzero" fill="#FF6600">
            <g id="Social-Media-Marketing" transform="translate(62.000000, -951.000000)">
                <g id="Group-3" transform="translate(420.000000, 1388.000000)">
                    <path d="M499.73365,257.805539 L454.861637,230.66568 L408.336268,257.145644 C408.407206,255.186838 408.442982,253.219012 408.442982,251.242786 C408.442982,163.219252 337.464733,91.862079 249.908626,91.862079 C248.881766,91.862079 247.857187,91.871894 246.834976,91.8914356 L267.515157,45.4880287 L247.249134,0.0139326784 C248.134541,0.00465183794 249.021043,0 249.908626,0 C387.929349,0 499.817251,112.485227 499.817251,251.242786 C499.817251,253.437054 499.789271,255.624752 499.73365,257.805539 Z M499.195059,269.110068 C490.416338,394.719367 389.794791,494.854013 264.417037,502.06924 L243.98461,456.221756 L264.607211,409.94755 C339.410124,403.033878 399.16874,343.877116 407.459578,269.095194 L454.708565,242.203383 L499.195059,269.110068 Z M236.505984,0.35514284 L256.619944,45.4880287 L235.670259,92.496163 C154.785174,99.7342526 91.374269,168.043781 91.374269,251.242786 C91.374269,253.029721 91.4035203,254.809786 91.4615677,256.582526 L48.6116366,230.66568 L0.0960962035,258.278352 C0.0321714379,255.940998 0,253.595669 0,251.242786 C0,117.005499 104.716751,7.35669126 236.505984,0.35514284 Z M0.643842821,269.417183 L48.4585646,242.203383 L92.3176739,268.730608 C100.97999,348.526529 168.231055,410.623493 249.908626,410.623493 C251.084756,410.623493 252.257896,410.610617 253.427912,410.584998 L233.089396,456.221756 L253.694778,502.457324 C252.434964,502.476134 251.172891,502.485572 249.908626,502.485572 C117.967004,502.485572 9.90686603,399.690918 0.643842821,269.417183 Z" id="Combined-Shape"></path>
                </g>
            </g>
        </g>
    </g>
</svg>