<svg xmlns="http://www.w3.org/2000/svg" viewBox="0 0 496.944 496.944">
  <circle cx="264" cy="240.472" r="104" fill="#FFA64D"/>
  <g fill="#333">
    <path d="M120 448.472h80v16h-80zm360-296h16v-72h-72v16h56m0 288h-56v16h72v-72h-16m-432-232h56v-16H32v72h16m0 176H32v72h72v-16H48"/>
    <path d="M495.16 244.048l1.784-3.576-1.792-3.576c-2.088-4.192-47.32-91.44-175.152-112.048V40.472c0-22.056-17.944-40-40-40H40c-22.056 0-40 17.944-40 40v416c0 22.056 17.944 40 40 40h240c22.056 0 40-17.944 40-40V356.096c127.832-20.608 173.064-107.856 175.16-112.048zm-16.328-3.624C467.672 259.008 408.4 344.472 264 344.472c-145.704 0-203.648-84.856-214.832-103.952C60.328 221.936 119.6 136.472 264 136.472c145.704 0 203.648 84.856 214.832 103.952zM40 16.472h240c13.232 0 24 10.768 24 24v8H16v-8c0-13.232 10.768-24 24-24zm240 464H40c-13.232 0-24-10.768-24-24v-24h288v24c0 13.232-10.768 24-24 24zm24-64H16v-352h288v58.224c-12.608-1.4-25.88-2.224-40-2.224-170.976 0-228.784 111.664-231.16 116.424l-1.784 3.576 1.792 3.576c2.368 4.76 60.176 116.424 231.152 116.424 14.12 0 27.392-.824 40-2.224v58.224z"/>
    <path d="M200 240.472c0 35.288 28.712 64 64 64 13.168 0 25.816-3.968 36.584-11.48l-9.16-13.128c-8.064 5.632-17.552 8.608-27.424 8.608-26.472 0-48-21.528-48-48s21.528-48 48-48 48 21.528 48 48c0 9.872-2.976 19.352-8.6 27.416l13.128 9.16C324.032 266.288 328 253.64 328 240.472c0-35.288-28.712-64-64-64s-64 28.712-64 64z"/>
    <path d="M256 208.472h16v24h-16zm0 40h16v24h-16zm16-16h24v16h-24zm-40 0h24v16h-24z"/>
  </g>
</svg>
