<?xml version="1.0" encoding="UTF-8" standalone="no"?>
<svg width="64px" height="64px" viewBox="0 0 64 64" version="1.1" xmlns="http://www.w3.org/2000/svg" xmlns:xlink="http://www.w3.org/1999/xlink">
    <!-- Generator: Sketch 47.1 (45422) - http://www.bohemiancoding.com/sketch -->
    <title>volcano</title>
    <desc>Created with Sketch.</desc>
    <defs></defs>
    <g id="Page-1" stroke="none" stroke-width="1" fill="none" fill-rule="evenodd">
        <g id="volcano" fill-rule="nonzero" fill="#000000">
            <path d="M3.69802729,31.6014035 L13.1112671,31.6014035 C13.6683041,31.6014035 14.1197973,31.1500351 14.1197973,30.5928733 C14.1197973,30.0357115 13.6681793,29.5843431 13.1112671,29.5843431 L3.69802729,29.5843431 C2.77108772,29.5843431 2.01706043,28.8303158 2.01706043,27.9033762 C2.01706043,26.9764366 2.77108772,26.2224094 3.69802729,26.2224094 L16.876538,26.2224094 C17.433575,26.2224094 17.8850682,25.7710409 17.8850682,25.2138791 C17.8850682,24.6567173 17.4334503,24.2053489 16.876538,24.2053489 L3.69802729,24.2053489 C1.65888499,24.2053489 0,25.8643587 0,27.9033762 C0,29.9423938 1.65888499,31.6014035 3.69802729,31.6014035 Z" id="Shape"></path>
            <path d="M35.9718674,61.8581832 L5.04277583,61.8581832 C4.11583626,61.8581832 3.36180897,61.1041559 3.36180897,60.1772164 L3.36180897,59.5049045 C3.36180897,55.9829084 5.83635088,53.1173801 8.87803509,53.1173801 C10.9882885,53.1173801 12.883462,54.4810916 13.8236257,56.6764288 C14.0141287,57.1214347 14.4935673,57.3682027 14.9666433,57.2645302 C15.3081014,57.1896764 15.6543002,57.1517505 15.995883,57.1517505 C17.8431501,57.1517505 19.5600468,58.2185419 20.588538,60.0054269 C20.8662456,60.4881092 21.4826667,60.6542846 21.965848,60.3764522 C22.448655,60.0986199 22.6147057,59.4820741 22.3367485,58.9992671 C20.9438441,56.5792437 18.5734737,55.1345653 15.995883,55.1345653 C15.7751891,55.1345653 15.5536218,55.1455439 15.3321793,55.167501 C13.9804444,52.6729981 11.5203743,51.1001949 8.87815984,51.1001949 C4.7242729,51.1001949 1.34474854,54.8704561 1.34474854,59.5047797 L1.34474854,60.1770916 C1.34474854,60.7819103 1.49083821,61.3534191 1.74920858,61.8580585 L1.00853021,61.8580585 C0.451617934,61.8581832 0,62.3095517 0,62.8667135 C0,63.4238752 0.451617934,63.8752437 1.00853021,63.8752437 L35.9718674,63.8752437 C36.5290292,63.8752437 36.9803977,63.4238752 36.9803977,62.8667135 C36.9803977,62.3095517 36.5290292,61.8581832 35.9718674,61.8581832 Z" id="Shape"></path>
            <path d="M40.8742924,5.91557115 C41.3562261,5.63636647 41.5209045,5.01944639 41.241575,4.53738791 C41.0909942,4.27739571 41.014768,3.99507212 41.014768,3.69815205 C41.014768,2.77121248 41.7687953,2.01718519 42.6957349,2.01718519 L60.1773411,2.01718519 C61.1042807,2.01718519 61.858308,2.77121248 61.858308,3.69815205 C61.858308,4.62509162 61.1042807,5.37911891 60.1773411,5.37911891 L53.9690916,5.37911891 C53.4119298,5.37911891 52.9605614,5.83061209 52.9605614,6.38764912 C52.9605614,6.94468616 53.4120546,7.39617934 53.9690916,7.39617934 L60.1773411,7.39617934 C62.2163587,7.39617934 63.8753684,5.73716959 63.8753684,3.69815205 C63.8752437,1.65900975 62.2162339,0 60.1772164,0 L42.6956101,0 C40.6565926,0 38.9975828,1.65900975 38.9975828,3.69802729 C38.9975828,4.34526316 39.1699961,4.98488889 39.4961092,5.5482885 C39.7750643,6.03034698 40.3918596,6.19490058 40.8742924,5.91557115 Z" id="Shape"></path>
            <path d="M39.6781287,56.4946589 C39.8459259,53.0926784 42.6479532,50.427883 46.0574191,50.427883 C46.4626277,50.427883 46.8729513,50.4675556 47.2775361,50.545653 C47.7257856,50.6326082 48.1767797,50.4070487 48.3762651,49.9959766 C49.4550331,47.7740663 51.6579805,46.3936374 54.1257856,46.3936374 C56.9538869,46.3936374 59.4774581,48.2888109 60.2626745,51.0022612 C60.4173723,51.5373411 60.9770292,51.8462378 61.5118596,51.6906667 C62.0469396,51.5358441 62.3550877,50.9765614 62.2002651,50.4414815 C61.3278441,47.4258713 58.8242339,45.1782612 55.8258402,44.5522339 L50.9655828,36.3507524 C50.6817622,35.8715634 50.0630955,35.7132476 49.5839064,35.997193 C49.1047173,36.2810136 48.9465263,36.8998051 49.230347,37.3788694 L53.3962105,44.4087641 C50.7307914,44.6451774 48.3021598,46.1632125 46.9198596,48.4554854 C46.6321715,48.4256686 46.3439844,48.4106979 46.0576686,48.4106979 C42.4563275,48.4106979 39.3698558,50.6711579 38.1781832,53.8791423 C36.6077505,52.1416608 34.3487875,51.1001949 31.9376218,51.1001949 C29.5264561,51.1001949 27.2674932,52.1416608 25.6973099,53.8791423 C24.5057622,50.6712827 21.4192904,48.4106979 17.8178246,48.4106979 C17.531384,48.4106979 17.2431969,48.4256686 16.9556335,48.4554854 C15.5732086,46.1632125 13.144577,44.6451774 10.4792827,44.4087641 L22.8502456,23.533037 L25.5500975,23.533037 L25.5500975,27.903501 C25.5500975,29.9425185 27.2089825,31.6015283 29.2481248,31.6015283 C31.2872671,31.6015283 32.946152,29.9425185 32.946152,27.903501 L32.946152,23.533037 L37.7424094,23.533037 C38.2995712,23.533037 38.7509396,23.0816686 38.7509396,22.5245068 C38.7509396,21.967345 38.2994464,21.5159766 37.7424094,21.5159766 L31.9376218,21.5159766 C31.3805848,21.5159766 30.9290916,21.9674698 30.9290916,22.5245068 L30.9290916,27.903501 C30.9290916,28.8304405 30.1750643,29.5844678 29.2481248,29.5844678 C28.3211852,29.5844678 27.5671579,28.8304405 27.5671579,27.903501 L27.5671579,22.5245068 C27.5671579,21.967345 27.11554,21.5159766 26.5586277,21.5159766 L23.955961,21.5159766 C24.561653,20.1434074 24.8776608,18.6543158 24.8776608,17.1455127 C24.8776608,16.9601248 25.0284912,16.8092943 25.2138791,16.8092943 L38.6612398,16.8092943 C38.8466277,16.8092943 38.9974581,16.96 38.9974581,17.1455127 C38.9974581,19.0859727 39.5204366,20.9937466 40.5095049,22.6628616 L42.2336374,25.5723041 C42.5177076,26.0514932 43.1363743,26.2099337 43.6153138,25.9258635 C44.0945029,25.6420429 44.252694,25.0232515 43.9688733,24.5441871 L42.2447407,21.6346199 C41.4399376,20.2766472 41.0145185,18.7243041 41.0145185,17.1456374 C41.0145185,15.8480468 39.9587057,14.7923587 38.6612398,14.7923587 L25.2138791,14.7923587 C23.9162885,14.7923587 22.8606004,15.8481715 22.8606004,17.1456374 C22.8606004,18.7243041 22.435306,20.2766472 21.6303782,21.6347446 L21.4180429,21.9930448 C21.4106823,22.0051462 21.4034464,22.0172476 21.3963353,22.0294737 L8.05327096,44.5459961 C4.69183626,45.2281637 2.03340351,47.9048109 1.45677973,51.4065965 C1.36633138,51.9561481 1.73847953,52.4751345 2.28815595,52.5655828 C2.83708382,52.6550331 3.35669396,52.283883 3.4471423,51.7342066 C3.95664717,48.639501 6.60709552,46.3933879 9.74945809,46.3933879 C12.2172632,46.3933879 14.42046,47.7738168 15.4989786,49.9957271 C15.6985887,50.4067992 16.1488343,50.6323587 16.5977076,50.5454035 C17.0020429,50.467306 17.412616,50.4276335 17.8178246,50.4276335 C21.2272904,50.4276335 24.0293177,53.0925536 24.197115,56.4944094 C24.2199454,56.9591267 24.5579103,57.3479922 25.0150175,57.4353216 C25.0785185,57.4475478 25.1420195,57.4535361 25.2048967,57.4535361 C25.5942612,57.4534113 25.9564288,57.2273528 26.1223548,56.8626901 C27.1580819,54.587384 29.4407485,53.1171306 31.9374971,53.1171306 C34.4342456,53.1171306 36.717037,54.587384 37.7525146,56.8628148 C37.9453879,57.2862378 38.4029942,57.5235244 38.8597271,57.4355712 C39.3172086,57.3482417 39.6550487,56.959501 39.6781287,56.4946589 Z" id="Shape"></path>
            <path d="M25.2138791,11.4303002 L48.0744795,11.4303002 C50.1134971,11.4303002 51.7725068,9.77129045 51.7725068,7.7322729 C51.7725068,7.08503704 51.6000936,6.44541131 51.2739805,5.8820117 C50.9949006,5.40007797 50.3781053,5.23527485 49.8957973,5.51472904 C49.4138635,5.79393372 49.2493099,6.4108538 49.5285146,6.89291228 C49.6790955,7.15302924 49.7554464,7.43522807 49.7554464,7.73214815 C49.7554464,8.65908772 49.0014191,9.41311501 48.0744795,9.41311501 L25.2140039,9.41311501 C24.2870643,9.41311501 23.533037,8.65908772 23.533037,7.73214815 C23.533037,6.80520858 24.2869396,6.05118129 25.2138791,6.05118129 L36.8122261,6.05118129 C37.3693879,6.05118129 37.8207563,5.59981287 37.8207563,5.04265107 C37.8207563,4.48548928 37.3693879,4.03412086 36.8122261,4.03412086 L25.2138791,4.03412086 C23.1747368,4.03412086 21.5158519,5.6931306 21.5158519,7.73214815 C21.5158519,9.77116569 23.1747368,11.4303002 25.2138791,11.4303002 Z" id="Shape"></path>
            <path d="M62.8667135,61.8581832 L62.1259103,61.8581832 C62.3845302,61.3536686 62.5304951,60.7821598 62.5304951,60.1772164 L62.5304951,59.5049045 C62.5304951,54.8704561 59.1509708,51.1003197 54.9970838,51.1003197 C52.3546199,51.1003197 49.8945497,52.6731228 48.5429396,55.167501 C48.3214971,55.1455439 48.0996803,55.1345653 47.8789864,55.1345653 C45.2209279,55.1345653 42.8117583,56.6487329 41.4341988,59.1847797 C41.1683431,59.6743236 41.349614,60.2865029 41.8391579,60.5524834 C42.329076,60.8182144 42.9408811,60.6369435 43.2068616,60.1476491 C44.2257466,58.2716881 45.9723353,57.1517505 47.8789864,57.1517505 C48.2205692,57.1517505 48.566768,57.1896764 48.9083509,57.2645302 C49.3815517,57.3682027 49.8608655,57.1213099 50.0513684,56.6763041 C50.9916569,54.4810916 52.8865809,53.1175049 54.9969591,53.1175049 C58.038768,53.1175049 60.5131852,55.9830331 60.5131852,59.5050292 L60.5131852,60.1773411 C60.5131852,61.1042807 59.7591579,61.858308 58.8322183,61.858308 L39.9388694,61.858308 C39.3817076,61.858308 38.9303392,62.3098012 38.9303392,62.8668382 C38.9303392,63.424 39.3817076,63.8753684 39.9388694,63.8753684 L62.8667135,63.8753684 C63.4238752,63.8753684 63.8752437,63.424 63.8752437,62.8668382 C63.8752437,62.3095517 63.4238752,61.8581832 62.8667135,61.8581832 Z" id="Shape"></path>
            <path d="M60.1772164,26.894846 L58.7316647,26.894846 C58.1745029,26.894846 57.7231345,27.3462144 57.7231345,27.9033762 C57.7231345,28.460538 58.1745029,28.9119064 58.7316647,28.9119064 L60.1772164,28.9119064 C61.1041559,28.9119064 61.8581832,29.6659337 61.8581832,30.5928733 C61.8581832,31.5198129 61.1041559,32.2738402 60.1772164,32.2738402 L44.0402339,32.2738402 C43.1132943,32.2738402 42.3592671,31.5198129 42.3592671,30.5928733 C42.3592671,29.6659337 43.1132943,28.9119064 44.0402339,28.9119064 L55.0555945,28.9119064 C55.6127563,28.9119064 56.0641248,28.460538 56.0641248,27.9033762 C56.0641248,27.3462144 55.6127563,26.894846 55.0555945,26.894846 L44.0402339,26.894846 C42.0012164,26.894846 40.3422066,28.5538558 40.3422066,30.5928733 C40.3422066,32.6318908 42.0012164,34.2909006 44.0402339,34.2909006 L60.1770916,34.2909006 C62.2161092,34.2909006 63.8751189,32.6318908 63.8751189,30.5928733 C63.8751189,28.5538558 62.2162339,26.894846 60.1772164,26.894846 Z" id="Shape"></path>
            <path d="M30.9290916,37.316616 L30.9290916,47.6711423 C30.9290916,48.2283041 31.3807096,48.6796725 31.9376218,48.6796725 C32.4947836,48.6796725 32.946152,48.2283041 32.946152,47.6711423 L32.946152,37.316616 C32.946152,36.7594542 32.4946589,36.3080858 31.9376218,36.3080858 C31.3805848,36.3080858 30.9290916,36.7594542 30.9290916,37.316616 Z" id="Shape"></path>
            <path d="M22.852117,35.4578713 L18.0707057,43.5262378 C17.7867602,44.0054269 17.9449513,44.6240936 18.4241404,44.9079142 C18.5854503,45.0034776 18.7626043,45.0490136 18.9372632,45.0490136 C19.2819649,45.0490136 19.6175595,44.8724834 19.8058168,44.5543548 L24.5872281,36.4859883 C24.8711735,36.0067992 24.7129825,35.3881326 24.2337934,35.1043119 C23.754729,34.8204912 23.1360624,34.9786823 22.852117,35.4578713 Z" id="Shape"></path>
            <path d="M39.2878908,36.4859883 L44.0693021,44.5544795 C44.2576842,44.8723587 44.5932788,45.0491384 44.9378558,45.0491384 C45.1126394,45.0491384 45.2897934,45.0037271 45.4509786,44.908039 C45.9301676,44.6242183 46.0883587,44.0054269 45.804538,43.5263626 L41.0231267,35.4578713 C40.7391813,34.9786823 40.1205146,34.8203665 39.6414503,35.1043119 C39.1622612,35.3881326 39.0039454,36.0067992 39.2878908,36.4859883 Z" id="Shape"></path>
        </g>
    </g>
</svg>