<?xml version="1.0" encoding="UTF-8" standalone="no"?>
<svg width="64px" height="64px" viewBox="0 0 64 64" version="1.1" xmlns="http://www.w3.org/2000/svg" xmlns:xlink="http://www.w3.org/1999/xlink">
    <!-- Generator: Sketch 47.1 (45422) - http://www.bohemiancoding.com/sketch -->
    <title>ponte-vecchio</title>
    <desc>Created with Sketch.</desc>
    <defs></defs>
    <g id="Page-1" stroke="none" stroke-width="1" fill="none" fill-rule="evenodd">
        <g id="ponte-vecchio" stroke="#000000" stroke-width="1.625" fill-rule="nonzero">
            <path d="M62.4875959,57.8444445 L62.4879331,57.8446202 C58.4866317,55.7606432 53.7159067,56.126835 50.0249464,58.8052951 C46.6846049,61.2311933 42.3471451,61.2311933 39.0069971,58.8054356 C34.7448803,55.7120204 29.2551118,55.7120204 24.9930714,58.8052951 C21.6527768,61.2311593 17.3168543,61.2311593 13.9736145,58.8053394 C10.2849852,56.1270223 5.51302938,55.760021 1.51227905,57.8444445 C0.888820463,58.1695282 0.646698337,58.9389789 0.971523042,59.5620173 C1.29660069,60.1847711 2.0657425,60.4268777 2.69020855,60.1025464 C5.83013233,58.4694133 9.58230367,58.7630054 12.4770029,60.8665644 C16.7391197,63.9599796 22.2288882,63.9599796 26.4909286,60.8667049 C29.8312701,58.4408067 34.1687299,58.4408067 37.5088825,60.8665678 C41.7744413,63.9625265 47.2629658,63.9592676 51.5217972,60.8664374 C54.421175,58.7632675 58.1761303,58.4686822 61.3098213,60.1024969 C61.9345652,60.4273331 62.7028764,60.1860067 63.0283221,59.562554 C63.3531683,58.9391117 63.1109752,58.1694868 62.4875959,57.8444445 Z" id="Shape"></path>
            <path d="M0.827375,32.8082131 L7.54625,30.9331969 L7.54625,27.11775 C7.54625,23.218228 10.7171843,20.04725 14.61675,20.04725 C18.4727815,20.04725 21.6162948,23.1476754 21.6860656,26.9873018 L24.9295,26.0821922 L24.9295,22.94575 C24.9295,19.046228 28.1004343,15.87525 32,15.87525 C35.8996064,15.87525 39.0705,19.0461436 39.0705,22.94575 L39.0705,26.0821922 L42.3139344,26.9873018 C42.3837076,23.1477564 45.5272596,20.04725 49.38325,20.04725 C53.2828564,20.04725 56.45375,23.2181436 56.45375,27.11775 L56.45375,30.9333219 L63.172625,32.8083381 L63.172625,18.7738582 C63.1725487,18.2011117 62.7905966,17.6996931 62.2380198,17.5470395 L62.2377957,17.5469776 L41.61725,11.8440413 L41.61725,6.257875 C41.61725,5.77543604 41.3445235,5.33420253 40.9133933,5.11859927 L32.5696378,0.946784015 C32.2115612,0.767821995 31.7881888,0.767821995 31.4302404,0.946719915 L23.0864125,5.11869636 C22.6552265,5.33432753 22.3825,5.77556104 22.3825,6.258 L22.3825,11.8441701 L21.7865748,12.0089788 L1.76173016,17.5470395 C1.20920787,17.699678 0.827375,18.2010273 0.827375,18.77375 L0.827375,32.8082131 Z" id="Shape"></path>
            <path d="M63.172875,38.8260672 C63.369674,38.8809827 63.5676726,38.9362328 63.7669953,38.9918524 L63.172875,38.20925 L63.172875,38.8260672 Z M0.827375,38.8260611 C0.827375,38.6334824 0.827375,38.4284525 0.827375,38.20925 L0.233262007,38.9918504 C0.417821618,38.9403485 0.616332796,38.8849532 0.827375,38.8260611 Z M31.9998719,30.12729 C32.0725588,30.1070074 32.1453507,30.0866956 32.2182526,30.066353 L31.7814917,30.0663514 C31.8544818,30.0867191 31.9272688,30.1070302 31.9998749,30.1272908 Z M31.9998749,30.1272908 C35.9970157,31.2426851 39.4457552,32.2050565 46.0335331,34.0433805 C46.0336581,34.0434153 46.0336581,34.0434153 46.033783,34.0434502 C52.7626672,35.9211478 57.4628223,37.2327155 63.172875,38.8260672 L63.172875,50.629875 C63.172875,51.5837614 62.1581553,52.1988442 61.309324,51.7584237 C58.1743556,50.1255865 54.4195457,50.419287 51.5216988,52.5228495 C47.2630908,55.6155176 41.7745663,55.6187765 37.5090075,52.5228178 C34.1688549,50.0970567 29.8313951,50.0970567 26.4910536,52.5229549 C22.2290132,55.6162296 16.7392447,55.6162296 12.4771279,52.5228144 C9.84607288,50.6115955 6.49212389,50.1857837 3.52476253,51.3749309 L3.29450895,51.4672032 L3.15505552,51.6723462 C2.45492853,52.7022681 0.827375,52.2060531 0.827375,50.957125 C0.827375,47.5613676 0.827375,47.5613676 0.827375,44.5785482 C0.827375,41.7921781 0.827375,41.6120243 0.827375,38.8260611 C5.83595517,37.4283975 17.9024641,34.0611511 18.0384526,34.0232028 C18.0390623,34.0230327 18.0390623,34.0230327 18.039672,34.0228625 C23.1314713,32.6019685 27.3508471,31.4245554 31.9998719,30.12729 Z M50.0248358,50.4616254 L50.0249464,50.4615451 C46.6846049,52.8874433 42.3471451,52.8874433 39.0070011,50.4616885 C34.7434552,47.3672758 29.2560564,47.3676378 24.9930572,50.4615554 C21.5176782,52.9854087 18.1633228,52.7972885 14.8347438,50.9626625 C14.2614469,50.6466762 12.911501,49.7796755 13.0302168,49.8503287 L12.3290802,49.43305 L12.7492942,48.7336688 C15.5168986,44.1274187 23.4780513,40.907 31.999875,40.907 C40.5216776,40.907 48.4823105,44.127156 51.2504252,48.7334929 L51.6706464,49.4327705 L50.969657,49.85013 C50.5872887,50.0777869 50.2946447,50.2657481 50.0248358,50.4616254 Z" id="Shape"></path>
        </g>
    </g>
</svg>