<svg xmlns="http://www.w3.org/2000/svg" viewBox="0 0 496 496">
  <path fill="#FFA64D" d="M272 106.408V104h-48v2.408c-54.776 11.12-96 59.536-96 117.592v24h240v-24c0-58.056-41.224-106.472-96-117.592zM128 112H0V0h128v112zm368 0H368V0h128v112z"/>
  <g fill="#333">
    <path d="M288 320c13.232 0 24-10.768 24-24s-10.768-24-24-24-24 10.768-24 24 10.768 24 24 24zm0-32c4.416 0 8 3.592 8 8s-3.584 8-8 8-8-3.592-8-8 3.584-8 8-8zm-56 8c0-13.232-10.768-24-24-24s-24 10.768-24 24 10.768 24 24 24 24-10.768 24-24zm-32 0c0-4.408 3.584-8 8-8s8 3.592 8 8-3.584 8-8 8-8-3.592-8-8zm96-120h40v16h-40zm-136 0h40v16h-40zm88 192c-17.648 0-32-14.352-32-32h-16c0 26.472 21.528 48 48 48s48-21.528 48-48h-16c0 17.648-14.352 32-32 32zM32 32h64v16H32zm0 32h64v16H32zm368-32h64v16h-64zm0 32h32v16h-32zm48 0h16v16h-16zM48 320h16v16H48zm0 32h16v16H48zm0 32h16v16H48z"/>
    <path d="M480 449.472V312c0-13.232-10.768-24-24-24h-80v-32h16v-16h-16v-16c0-5.416-.456-10.736-1.128-16H416c13.232 0 24-10.768 24-24v-72h-16v72c0 4.408-3.584 8-8 8h-44.128c-7.432-28.584-24.544-53.656-47.968-71 .112-.336.264-.656.368-1H344V72h-19.728c-1.408-4.464-3.2-8.792-5.384-12.952l13.96-13.96-33.936-33.944-13.96 13.96c-4.152-2.176-8.488-3.968-12.952-5.376V0h-48v19.728c-4.464 1.408-8.8 3.2-12.952 5.376l-13.96-13.96-33.936 33.944 13.96 13.96c-2.176 4.16-3.976 8.488-5.384 12.952H152v48h19.736c.104.336.256.664.36 1-23.424 17.344-40.536 42.416-47.968 71H80c-4.416 0-8-3.592-8-8v-72H56v72c0 13.232 10.768 24 24 24h41.128c-.672 5.264-1.128 10.584-1.128 16v16h-16v16h16v32H40c-13.232 0-24 10.768-24 24v137.472C6.712 452.784 0 461.584 0 472c0 13.232 10.768 24 24 24s24-10.768 24-24c0-10.416-6.712-19.216-16-22.528V312c0-4.408 3.584-8 8-8h80v111.072c-21.84 9.32-39.392 27.184-47.936 49.976L60.456 496h375.096l-11.608-30.952C415.392 442.256 397.84 424.4 376 415.072V304h80c4.416 0 8 3.592 8 8v137.472c-9.288 3.312-16 12.112-16 22.528 0 13.232 10.768 24 24 24s24-10.768 24-24c0-10.416-6.712-19.216-16-22.528zM24 480c-4.416 0-8-3.592-8-8s3.584-8 8-8 8 3.592 8 8-3.584 8-8 8zm161.64-369.776L184.224 104H168V88h16.224l1.416-6.224c1.6-7.008 4.368-13.672 8.216-19.792l3.408-5.408-11.496-11.496 11.312-11.32 11.496 11.496 5.408-3.4c6.128-3.856 12.784-6.624 19.792-8.216L240 32.232V16h16v16.232l6.224 1.416c7.008 1.592 13.664 4.36 19.792 8.216l5.408 3.4 11.496-11.496 11.312 11.32-11.496 11.496 3.408 5.408c3.848 6.12 6.616 12.776 8.216 19.792L311.776 88H328v16h-16.224l-1.416 6.216c-.144.624-.352 1.232-.512 1.856-4.744-2.632-9.616-5.072-14.728-7.096.56-2.944.88-5.944.88-8.976 0-26.472-21.528-48-48-48s-48 21.528-48 48c0 3.032.32 6.024.88 8.976-5.112 2.024-9.984 4.464-14.728 7.104-.168-.624-.368-1.24-.512-1.856zM216 96c0-17.648 14.352-32 32-32s32 14.352 32 32h-64zm0 20.648V168h16v-56h32v56h16v-51.352c41.784 12.44 72.52 48.48 78.744 91.352H137.256c6.224-42.872 36.96-78.92 78.744-91.352zM136 224h224v16H136v-16zm112 176c-44.112 0-80-35.888-80-80v-64h160v64c0 44.112-35.888 80-80 80zm39.872 7.216C286.096 412.248 277.264 432 248 432c-29.36 0-38.112-19.752-39.864-24.776C220.296 412.8 233.768 416 248 416s27.712-3.2 39.872-8.784zM136 256h16v64c0 32.024 15.824 60.368 40 77.816v3.32l-50.92 7.832c-1.728.264-3.384.768-5.08 1.136V256zm272.952 214.664l3.504 9.336H83.544l3.504-9.336c9.128-24.344 30.768-41.928 56.472-45.88l51.248-7.888C201.056 430.336 217.184 448 248 448s46.944-17.664 53.232-31.104l51.248 7.888c25.704 3.952 47.352 21.536 56.472 45.88zm-54.032-61.688l-50.92-7.84v-3.32c24.176-17.448 40-45.792 40-77.816v-64h16v154.104c-1.696-.36-3.352-.864-5.08-1.128zM472 480c-4.416 0-8-3.592-8-8s3.584-8 8-8 8 3.592 8 8-3.584 8-8 8z"/>
    <path d="M432 320h16v16h-16zm0 32h16v16h-16zm0 32h16v16h-16z"/>
  </g>
</svg>
