<?xml version="1.0" encoding="UTF-8"?>
<svg width="48px" height="48px" viewBox="0 0 48 48" version="1.1" xmlns="http://www.w3.org/2000/svg" xmlns:xlink="http://www.w3.org/1999/xlink">
    <!-- Generator: Sketch 47.1 (45422) - http://www.bohemiancoding.com/sketch -->
    <title>001-growth</title>
    <desc>Created with Sketch.</desc>
    <defs></defs>
    <g id="Elements" stroke="none" stroke-width="1" fill="none" fill-rule="evenodd">
        <g id="Components-/-Card" transform="translate(-1028.000000, -797.000000)" fill-rule="nonzero">
            <g id="Social-Media-Marketing" transform="translate(62.000000, -951.000000)">
                <g id="Group-5" transform="translate(32.000000, 1426.000000)">
                    <g id="001-growth" transform="translate(934.000000, 322.000000)">
                        <path d="M46.6738065,34.3269677 C45.8307097,33.5667097 44.7096774,33.1966452 43.5708387,33.3104516 L30.1656774,34.6730323 C30.2144516,34.2433548 30.188129,33.7989677 30.0588387,33.3592258 C29.5455484,31.6126452 27.7029677,30.6030968 25.9571613,31.1070968 L24.7741935,31.4477419 L24.7741935,26.7445161 L28.8990968,23.9945806 C32.6229677,23.859871 35.6129032,20.7963871 35.6129032,17.04 L35.6129032,16.2658065 L34.8387097,16.2658065 C31.1411613,16.2658065 28.1163871,19.1628387 27.8926452,22.8046452 L24.7741935,24.8833548 L24.7741935,13.1690323 L23.2258065,13.1690323 L23.2258065,21.0131613 L20.1073548,18.9344516 C19.8836129,15.2910968 16.8588387,12.3948387 13.1612903,12.3948387 L12.3870968,12.3948387 L12.3870968,13.1690323 C12.3870968,16.9254194 15.3770323,19.9889032 19.1009032,20.1236129 L23.2258065,22.8735484 L23.2258065,31.8944516 L13.0513548,34.8309677 L6.96774194,34.8309677 L6.96774194,33.2825806 L0,33.2825806 L0,47.2180645 L6.96774194,47.2180645 L6.96774194,46.5538065 L17.7042581,47.9852903 L28.8,47.9922581 L45.5256774,41.0229677 C47.0283871,40.395871 48,38.9396129 48,37.3107097 C48,36.1749677 47.5169032,35.0872258 46.6738065,34.3269677 Z M33.9994839,17.8792258 C33.6379355,20.1971613 31.8023226,22.0327742 29.4843871,22.3943226 C29.8459355,20.0756129 31.6815484,18.24 33.9994839,17.8792258 Z M14.0005161,14.0082581 C16.3184516,14.3698065 18.1540645,16.2054194 18.5156129,18.5233548 C16.1976774,18.1618065 14.3620645,16.3261935 14.0005161,14.0082581 Z M5.41935484,45.6696774 L1.5483871,45.6696774 L1.5483871,34.8309677 L5.41935484,34.8309677 L5.41935484,45.6696774 Z M44.9295484,39.5938065 L28.4903226,46.443871 L17.8575484,46.443871 L6.96774194,44.9922581 L6.96774194,36.3793548 L13.1612903,36.3793548 L26.3868387,32.5935484 C27.3205161,32.3233548 28.299871,32.8637419 28.5731613,33.7943226 C28.8193548,34.6343226 28.4245161,35.516129 27.6317419,35.8900645 L18.2492903,40.3246452 L18.9112258,41.7251613 L28.2936774,37.2905806 C28.7914839,37.0552258 29.1971613,36.7060645 29.5099355,36.2957419 L43.7272258,34.8510968 C44.4301935,34.7775484 45.1091613,35.0012903 45.6348387,35.475871 C46.1620645,35.9504516 46.4516129,36.6023226 46.4516129,37.3107097 C46.4516129,38.3125161 45.8547097,39.2082581 44.9295484,39.5938065 Z M42.5806452,7.74967742 L44.1290323,7.74967742 L44.1290323,6.20129032 L45.6774194,6.20129032 L45.6774194,7.74967742 L47.2258065,7.74967742 L47.2258065,9.29806452 L45.6774194,9.29806452 L45.6774194,10.8464516 L44.1290323,10.8464516 L44.1290323,9.29806452 L42.5806452,9.29806452 L42.5806452,7.74967742 Z M38.7096774,6.97548387 L38.7096774,4.65290323 L36.3870968,4.65290323 L36.3870968,3.10451613 L38.7096774,3.10451613 L38.7096774,0.781935484 L40.2580645,0.781935484 L40.2580645,3.10451613 L42.5806452,3.10451613 L42.5806452,4.65290323 L40.2580645,4.65290323 L40.2580645,6.97548387 L38.7096774,6.97548387 Z M41.0322581,15.4916129 L39.483871,15.4916129 L39.483871,13.9432258 L37.9354839,13.9432258 L37.9354839,12.3948387 L39.483871,12.3948387 L39.483871,10.8464516 L41.0322581,10.8464516 L41.0322581,12.3948387 L42.5806452,12.3948387 L42.5806452,13.9432258 L41.0322581,13.9432258 L41.0322581,15.4916129 Z M8.51612903,9.29806452 L8.51612903,7.74967742 L6.96774194,7.74967742 L6.96774194,6.20129032 L8.51612903,6.20129032 L8.51612903,4.65290323 L10.0645161,4.65290323 L10.0645161,6.20129032 L11.6129032,6.20129032 L11.6129032,7.74967742 L10.0645161,7.74967742 L10.0645161,9.29806452 L8.51612903,9.29806452 Z M3.09677419,15.4916129 L3.09677419,13.1690323 L0.774193548,13.1690323 L0.774193548,11.6206452 L3.09677419,11.6206452 L3.09677419,9.29806452 L4.64516129,9.29806452 L4.64516129,11.6206452 L6.96774194,11.6206452 L6.96774194,13.1690323 L4.64516129,13.1690323 L4.64516129,15.4916129 L3.09677419,15.4916129 Z" id="Combined-Shape" fill="#333333"></path>
                        <path d="M24,13.9432258 C20.1576774,13.9432258 17.0322581,10.8178065 17.0322581,6.97548387 C17.0322581,3.13316129 20.1576774,0.00774193548 24,0.00774193548 C27.8423226,0.00774193548 30.9677419,3.13316129 30.9677419,6.97548387 C30.9677419,10.8178065 27.8423226,13.9432258 24,13.9432258 Z" id="Shape" fill="#F9BA48"></path>
                        <path d="M24.7741935,9.29806452 L23.2258065,9.29806452 C22.7984516,9.29806452 22.4516129,8.95122581 22.4516129,8.52387097 L20.9032258,8.52387097 C20.9032258,9.8043871 21.9452903,10.8464516 23.2258065,10.8464516 L23.2258065,11.6206452 L24.7741935,11.6206452 L24.7741935,10.8464516 C26.0547097,10.8464516 27.0967742,9.8043871 27.0967742,8.52387097 C27.0967742,7.24335484 26.0547097,6.20129032 24.7741935,6.20129032 L23.2258065,6.20129032 C22.7984516,6.20129032 22.4516129,5.85445161 22.4516129,5.42709677 C22.4516129,4.99974194 22.7984516,4.65290323 23.2258065,4.65290323 L24.7741935,4.65290323 C25.2015484,4.65290323 25.5483871,4.99974194 25.5483871,5.42709677 L27.0967742,5.42709677 C27.0967742,4.14658065 26.0547097,3.10451613 24.7741935,3.10451613 L24.7741935,2.33032258 L23.2258065,2.33032258 L23.2258065,3.10451613 C21.9452903,3.10451613 20.9032258,4.14658065 20.9032258,5.42709677 C20.9032258,6.7076129 21.9452903,7.74967742 23.2258065,7.74967742 L24.7741935,7.74967742 C25.2015484,7.74967742 25.5483871,8.09651613 25.5483871,8.52387097 C25.5483871,8.95122581 25.2015484,9.29806452 24.7741935,9.29806452 Z" id="Shape" fill="#333333"></path>
                    </g>
                </g>
            </g>
        </g>
    </g>
</svg>