<svg id="icon-florence" width="64" height="64" xmlns="http://www.w3.org/2000/svg">
  <path d="M.827 36.808V22.774c0-.573.382-1.074.935-1.227l20.025-5.538.596-.168v-5.586c0-.482.272-.924.703-1.14l8.344-4.17c.358-.18.782-.18 1.14 0l8.343 4.17c.432.216.704.657.704 1.14v5.586l20.62 5.703c.554.153.936.654.936 1.227v14.034l-6.72-1.875v-3.814c0-3.9-3.17-7.07-7.07-7.07-3.856 0-7 3.1-7.07 6.94l-3.242-.906v-3.135c0-3.9-3.17-7.07-7.07-7.07-3.9 0-7.07 3.17-7.07 7.07v3.136l-3.242.907c-.07-3.84-3.213-6.94-7.07-6.94-3.9 0-7.07 3.17-7.07 7.07v3.816l-6.72 1.875zM32 34.128l14.034 3.915 17.14 4.783V54.63c0 .954-1.016 1.57-1.865 1.128-3.138-1.632-6.89-1.34-9.79.765-4.26 3.093-9.747 3.096-14.013 0-3.34-2.426-7.68-2.426-11.02 0-4.26 3.093-9.75 3.093-14.013 0-2.63-1.91-5.985-2.337-8.952-1.148l-.23.092-.14.205c-.7 1.03-2.328.534-2.328-.715v-12.13l17.21-4.804h.003L32 34.127zM50.025 54.46c.27-.196.562-.384.945-.612l.7-.417-.42-.7c-2.768-4.604-10.728-7.824-19.25-7.824s-16.483 3.22-19.25 7.827l-.42.7.7.416c-.118-.07 1.23.796 1.805 1.112 3.328 1.835 6.683 2.023 10.158-.5 4.263-3.094 9.75-3.095 14.014 0 3.34 2.425 7.678 2.425 11.018 0z" stroke="#000" stroke-width="2" fill="none"/>
</svg>
