<svg xmlns="http://www.w3.org/2000/svg" viewBox="0 0 496 496">
  <g fill="#333">
    <path d="M450.712 447.608c-13.576-24.456-38.256-41.12-66.008-44.584L304 392.936v-6.976c27.848-14.792 49.688-40.28 59.024-71.672l-15.328-4.56C334.68 353.456 293.68 384 248 384c-45.648 0-86.632-30.52-99.68-74.216l-15.328 4.576c9.352 31.344 31.184 56.8 59.008 71.584v6.984l-80.704 10.088c-27.752 3.472-52.432 20.136-66.008 44.584L18.408 496h459.184l-26.88-48.392zM288 392.976v5.856C286.624 403 278.216 424 248 424c-30.208 0-38.6-20.904-40-25.168v-5.856c12.64 4.52 26.12 7.024 40 7.024 13.88 0 27.36-2.504 40-7.024zM401.392 480l-6.712-33.568-15.688 3.144L385.08 480H116.592l6.088-30.432-15.688-3.144L100.28 480H45.592l13.68-24.624c11.112-20 31.304-33.64 54.008-36.48l81.408-10.176C200.912 422.176 217.056 440 248 440s47.088-17.816 53.312-31.272l81.408 10.176c22.704 2.84 42.896 16.472 54.008 36.48L450.408 480h-49.016z"/>
    <path d="M248 368c22.056 0 40-17.944 40-40h-16c0 13.232-10.768 24-24 24s-24-10.768-24-24h-16c0 22.056 17.944 40 40 40z"/>
  </g>
  <path fill="#FFA64D" d="M368 320H128c-13.232 0-24-10.768-24-24V184c0-13.232 10.768-24 24-24h240c13.232 0 24 10.768 24 24v112c0 13.232-10.768 24-24 24z"/>
  <g fill="#333">
    <path d="M416 182.24V152C416 68.184 347.816 0 264 0h-32C148.184 0 80 68.184 80 152v30.24c-4.872 4.392-8 10.696-8 17.76v72c0 13.232 10.768 24 24 24h16v-16H96c-4.416 0-8-3.592-8-8v-72c0-4.408 3.584-8 8-8h16v-16H96v-24c0-74.992 61.008-136 136-136h32c74.992 0 136 61.008 136 136v24h-16v16h16c4.416 0 8 3.592 8 8v72c0 4.408-3.584 8-8 8h-16v16h16c13.232 0 24-10.768 24-24v-72c0-7.064-3.128-13.36-8-17.76z"/>
    <path d="M312 192v-32h-16v32h-96v-32h-16v32h-48v96h224v-96h-48zm32 80H152v-64h192v64z"/>
  </g>
</svg>
