<?xml version="1.0" encoding="UTF-8"?>
<svg width="47px" height="48px" viewBox="0 0 47 48" version="1.1" xmlns="http://www.w3.org/2000/svg" xmlns:xlink="http://www.w3.org/1999/xlink">
    <!-- Generator: Sketch 47.1 (45422) - http://www.bohemiancoding.com/sketch -->
    <title>004-connection</title>
    <desc>Created with Sketch.</desc>
    <defs></defs>
    <g id="Elements" stroke="none" stroke-width="1" fill="none" fill-rule="evenodd">
        <g id="Components-/-Card" transform="translate(-1029.000000, -485.000000)" fill-rule="nonzero">
            <g id="Social-Media-Marketing" transform="translate(62.000000, -951.000000)">
                <g id="Group-5" transform="translate(32.000000, 1426.000000)">
                    <g id="004-connection" transform="translate(935.000000, 10.000000)">
                        <path d="M25.1285,5.74795876 C26.0503333,5.20907216 26.677,4.22630928 26.677,3.09278351 C26.677,1.38705155 25.2755,0 23.552,0 C21.8285,0 20.427,1.38705155 20.427,3.09278351 C20.427,4.22630928 21.0535,5.20907216 21.9755,5.74795876 C20.606,6.34952577 19.6458333,7.70259794 19.6458333,9.27835052 L19.6458333,10.0516289 C19.6458333,10.4785155 19.995,10.8249072 20.4271667,10.8249072 L22.771,10.8249072 L22.771,16.2373608 L24.3331667,16.2373608 L24.3331667,10.8247423 L26.677,10.8247423 C27.109,10.8247423 27.4583333,10.4783505 27.4583333,10.0514639 L27.4583333,9.27835052 C27.4581667,7.70259794 26.498,6.34952577 25.1285,5.74795876 Z M23.552,1.54639175 C24.4136667,1.54639175 25.1145,2.24 25.1145,3.09278351 C25.1145,3.94556701 24.4136667,4.63917526 23.552,4.63917526 C22.6903333,4.63917526 21.9895,3.94556701 21.9895,3.09278351 C21.9895,2.24 22.6901667,1.54639175 23.552,1.54639175 Z M21.2081667,9.27835052 C21.2081667,7.99950515 22.2596667,6.95868041 23.552,6.95868041 C24.8443333,6.95868041 25.8958333,7.99934021 25.8958333,9.27835052 L21.2081667,9.27835052 Z M0.895666667,16.2371959 C0.463666667,16.2371959 0.114333333,15.8908041 0.1145,15.4639175 L0.1145,14.6906392 C0.1145,13.1148866 1.07466667,11.7618144 2.44416667,11.1602474 C1.52216667,10.6213608 0.895666667,9.63859794 0.895666667,8.50507216 C0.895666667,6.79934021 2.29716667,5.41228866 4.02066667,5.41228866 C5.74416667,5.41228866 7.14566667,6.79934021 7.14566667,8.50507216 C7.14566667,9.63859794 6.51916667,10.6213608 5.5965,11.1602474 C6.548,11.5785567 7.29333333,12.3625567 7.66366667,13.3306392 L16.9535,19.4597938 L16.0871667,20.7463918 L7.927,15.3618144 L7.927,15.4639175 C7.927,15.8908041 7.57766667,16.2371959 7.14566667,16.2371959 L0.895666667,16.2371959 Z M4.02066667,6.95884536 C3.15883333,6.95884536 2.45816667,7.65245361 2.45816667,8.50523711 C2.45816667,9.35802062 3.159,10.0516289 4.02066667,10.0516289 C4.88233333,10.0516289 5.58316667,9.35802062 5.58316667,8.50523711 C5.58316667,7.65245361 4.88233333,6.95884536 4.02066667,6.95884536 Z M4.02066667,12.371134 C2.7285,12.371134 1.67683333,13.4117938 1.67683333,14.6908041 L6.3645,14.6908041 C6.3645,13.4117938 5.31283333,12.371134 4.02066667,12.371134 Z M44.6598333,11.1602474 C46.0293333,11.7618144 46.9895,13.1148866 46.9898333,14.6906392 L46.9898333,15.4639175 C46.9898333,15.8908041 46.6405,16.2371959 46.2085,16.2371959 L39.9585,16.2371959 C39.5263333,16.2371959 39.1771667,15.8908041 39.1771667,15.4639175 L39.1771667,15.3618144 L31.0161667,20.7463918 L30.1498333,19.4597938 L39.4396667,13.3306392 C39.81,12.3625567 40.5553333,11.5785567 41.5068333,11.1602474 C40.5848333,10.6213608 39.9583333,9.63859794 39.9583333,8.50507216 C39.9583333,6.79934021 41.3598333,5.41228866 43.0833333,5.41228866 C44.8068333,5.41228866 46.2083333,6.79934021 46.2083333,8.50507216 C46.2083333,9.63859794 45.5816667,10.6213608 44.6598333,11.1602474 Z M43.0831667,6.95884536 C42.2215,6.95884536 41.5206667,7.65245361 41.5206667,8.50523711 C41.5206667,9.35802062 42.2215,10.0516289 43.0831667,10.0516289 C43.9448333,10.0516289 44.6456667,9.35802062 44.6456667,8.50523711 C44.6456667,7.65245361 43.9448333,6.95884536 43.0831667,6.95884536 Z M40.7395,14.6908041 L45.4271667,14.6908041 C45.4271667,13.4117938 44.3755,12.371134 43.0833333,12.371134 C41.791,12.371134 40.7395,13.4119588 40.7395,14.6908041 Z M44.6598333,32.809732 C46.0293333,33.411299 46.9895,34.7643711 46.9898333,36.3401237 L46.9898333,37.1134021 C46.9898333,37.5411134 46.6405,37.8866804 46.2085,37.8866804 L39.9585,37.8866804 C39.5263333,37.8866804 39.1771667,37.5409485 39.1771667,37.1134021 L39.1771667,36.3401237 C39.1771667,35.8182268 39.285,35.3218969 39.4748333,34.8679588 L30.1388333,28.4712577 L31.0286667,27.1993402 L40.3498333,33.5859794 C40.6826667,33.2620206 41.0748333,32.9999175 41.5068333,32.809732 C40.5848333,32.2715052 39.9583333,31.2889072 39.9583333,30.1545567 C39.9583333,28.4488247 41.3598333,27.0617732 43.0833333,27.0617732 C44.8068333,27.0617732 46.2083333,28.4488247 46.2083333,30.1545567 C46.2083333,31.2889072 45.5816667,32.2716701 44.6598333,32.809732 Z M43.0831667,28.6083299 C42.2215,28.6083299 41.5206667,29.3019381 41.5206667,30.1547216 C41.5206667,31.0075052 42.2215,31.7011134 43.0831667,31.7011134 C43.9448333,31.7011134 44.6456667,31.0075052 44.6456667,30.1547216 C44.6456667,29.3019381 43.9448333,28.6083299 43.0831667,28.6083299 Z M40.7395,36.3402887 L45.4271667,36.3402887 C45.4271667,35.0612784 44.3755,34.0206186 43.0833333,34.0206186 C41.791,34.0206186 40.7395,35.0614433 40.7395,36.3402887 Z M25.1285,42.8613608 C26.498,43.4629278 27.4581667,44.816 27.4583333,46.3917526 L27.4583333,47.1650309 C27.4583333,47.5927423 27.109,47.9383093 26.677,47.9383093 L20.427,47.9383093 C19.9948333,47.9383093 19.6456667,47.5925773 19.6456667,47.1650309 L19.6456667,46.3917526 C19.6456667,44.816 20.6058333,43.4629278 21.9753333,42.8613608 C21.0533333,42.323134 20.4268333,41.3405361 20.4268333,40.2061856 C20.4268333,38.7688247 21.4261667,37.5688247 22.7706667,37.2232577 L22.7706667,31.7011134 L24.3331667,31.7011134 L24.3331667,37.2232577 C25.6778333,37.5688247 26.677,38.7688247 26.677,40.2061856 C26.677,41.3405361 26.0503333,42.323299 25.1285,42.8613608 Z M23.552,38.6597938 C22.6901667,38.6597938 21.9895,39.3534021 21.9895,40.2061856 C21.9895,41.0589691 22.6903333,41.7525773 23.552,41.7525773 C24.4136667,41.7525773 25.1145,41.0589691 25.1145,40.2061856 C25.1145,39.3534021 24.4136667,38.6597938 23.552,38.6597938 Z M21.2081667,46.3917526 L25.8958333,46.3917526 C25.8958333,45.1127423 24.8443333,44.0720825 23.552,44.0720825 C22.2596667,44.0720825 21.2081667,45.1129072 21.2081667,46.3917526 Z M16.0761667,27.1995052 L16.9655,28.4712577 L7.6295,34.8679588 C7.81933333,35.3218969 7.92716667,35.8182268 7.92716667,36.3401237 L7.92716667,37.1134021 C7.92716667,37.5411134 7.57783333,37.8866804 7.14583333,37.8866804 L0.895833333,37.8866804 C0.463666667,37.8866804 0.1145,37.5409485 0.1145,37.1134021 L0.1145,36.3402887 C0.1145,34.7645361 1.07466667,33.4114639 2.44416667,32.8098969 C1.52216667,32.2716701 0.895666667,31.2890722 0.895666667,30.1547216 C0.895666667,28.4489897 2.29716667,27.0619381 4.02066667,27.0619381 C5.74416667,27.0619381 7.14566667,28.4489897 7.14566667,30.1547216 C7.14566667,31.2890722 6.51916667,32.2716701 5.598,32.8098969 C6.03,33.0000825 6.42216667,33.2621856 6.755,33.5861443 L16.0761667,27.1995052 Z M4.02066667,28.6083299 C3.15883333,28.6083299 2.45816667,29.3019381 2.45816667,30.1547216 C2.45816667,31.0075052 3.159,31.7011134 4.02066667,31.7011134 C4.88233333,31.7011134 5.58316667,31.0075052 5.58316667,30.1547216 C5.58316667,29.3019381 4.88233333,28.6083299 4.02066667,28.6083299 Z M1.67683333,36.3402887 L6.3645,36.3402887 C6.3645,35.0612784 5.313,34.0206186 4.02066667,34.0206186 C2.72833333,34.0206186 1.67683333,35.0614433 1.67683333,36.3402887 Z" id="Combined-Shape" fill="#333333"></path>
                        <path d="M23.552,32.4742268 C18.8136667,32.4742268 14.9581667,28.6584742 14.9581667,23.9689897 C14.9581667,19.2795052 18.8136667,15.4637526 23.552,15.4637526 C28.2903333,15.4637526 32.1458333,19.2795052 32.1458333,23.9689897 C32.1458333,28.6584742 28.2901667,32.4742268 23.552,32.4742268 Z" id="Shape" fill="#F9BA48"></path>
                        <path d="M25.1285,23.5313814 C26.0503333,22.9924948 26.677,22.009732 26.677,20.8762062 C26.677,19.1704742 25.2755,17.7834227 23.552,17.7834227 C21.8285,17.7834227 20.427,19.1704742 20.427,20.8762062 C20.427,22.009732 21.0535,22.9924948 21.9755,23.5313814 C20.606,24.1329485 19.6458333,25.4860206 19.6458333,27.0617732 L19.6458333,27.8350515 C19.6458333,28.2625979 19.995,28.6083299 20.4271667,28.6083299 L26.6771667,28.6083299 C27.1091667,28.6083299 27.4585,28.2627629 27.4585,27.8350515 L27.4585,27.0617732 C27.4581667,25.4860206 26.498,24.1329485 25.1285,23.5313814 Z M23.552,19.3299794 C24.4136667,19.3299794 25.1145,20.0235876 25.1145,20.8763711 C25.1145,21.7291546 24.4136667,22.4227629 23.552,22.4227629 C22.6903333,22.4227629 21.9895,21.7291546 21.9895,20.8763711 C21.9895,20.0235876 22.6901667,19.3299794 23.552,19.3299794 Z M21.2081667,27.0619381 C21.2081667,25.7830928 22.2596667,24.742268 23.552,24.742268 C24.8443333,24.742268 25.8958333,25.7829278 25.8958333,27.0619381 L21.2081667,27.0619381 Z" id="Shape" fill="#333333"></path>
                    </g>
                </g>
            </g>
        </g>
    </g>
</svg>