<svg xmlns="http://www.w3.org/2000/svg" viewBox="0 0 290.627 290.627">
  <path fill="#F9BA48" d="M253.126 0H14.064C6.31 0 0 6.31 0 14.063v140.625c0 7.753 6.31 14.063 14.063 14.063h178.125v-49.21c0-6.47 5.245-11.72 11.72-11.72 6.472 0 11.718 5.25 11.718 11.72v48.29l.53-.023c1.434-4.856 5.87-8.42 11.19-8.42 4.99 0 9.23 3.137 10.916 7.54l1.627-.067c1.7-4.367 5.92-7.475 10.89-7.475 4.63 0 8.6 2.713 10.5 6.62l.213-.01c3.563-2.65 5.686-6.873 5.686-11.298V14.06c0-7.75-6.307-14.06-14.06-14.06z"/>
  <path fill="#333" d="M89.064 53.906c0-19.387-15.77-35.156-35.156-35.156H18.75V150h35.157c19.387 0 35.156-15.77 35.156-35.156 0-13.008-7.102-24.39-17.634-30.47 10.53-6.08 17.63-17.46 17.63-30.468zm-9.375 60.938c0 14.217-11.57 25.78-25.79 25.78H28.12v-51.56H53.9c14.214 0 25.783 11.563 25.783 25.78zM53.9 79.688H28.12V28.125H53.9c14.212 0 25.78 11.564 25.78 25.78S68.12 79.69 53.908 79.69zm114.844 35.156V18.75h-9.375v96.094c0 14.217-11.57 25.78-25.78 25.78s-25.78-11.563-25.78-25.78V18.75h-9.37v96.094C98.44 134.23 114.2 150 133.59 150s35.154-15.77 35.154-35.156z"/>
  <path fill="#333" d="M285.226 168.305c-3.422-3.103-8.01-4.617-12.68-4.158-2.23.225-4.312.96-6.187 2.048-2.1-6.647-8.25-11.508-15.58-11.508-4.6 0-8.74 1.908-11.72 4.96-2.98-3.053-7.13-4.96-11.72-4.96-2.53 0-4.9.623-7.03 1.645V93.376c15.87-2.288 28.12-15.942 28.12-32.438V18.75h-9.378v42.188c0 12.923-10.514 23.438-23.437 23.438s-23.43-10.514-23.43-23.438V18.75h-9.377v42.188c0 16.495 12.253 30.15 28.125 32.438v11.433c-1.66-.83-3.45-1.41-5.36-1.6-4.66-.48-9.26 1.05-12.68 4.16-3.43 3.1-5.4 7.53-5.4 12.16v88.32L169.64 190c-7.365-7.372-18.948-7.92-26.35-1.25-3.87 3.487-6.074 8.263-6.21 13.457-.13 5.12 2.934 10.13 6.553 13.75l48.553 47.48v27.187h9.374v-31.07l-51.294-50.226c-1.838-1.836-3.348-4.28-3.278-6.876s.91-4.988 2.844-6.736c3.642-3.28 9.544-2.86 13.317.913l33.72 33.86V119.53c0-2.01.82-3.86 2.31-5.216 1.49-1.35 3.46-1.978 5.454-1.777 3.525.352 6.29 3.717 6.29 7.664v71.99h9.376V171.1c0-3.877 3.156-7.03 7.03-7.03s7.033 3.154 7.033 7.03v21.094h9.373V171.1c0-3.877 3.156-7.03 7.032-7.03s7.03 3.154 7.03 7.03v25.78h9.374v-15.74c0-3.943 2.767-7.314 6.29-7.665 2.036-.21 3.97.43 5.458 1.777 1.49 1.356 2.315 3.207 2.315 5.218v86.72c0 2.582-2.1 4.687-4.686 4.687h-4.688v18.75h9.374V280.45c5.46-1.936 9.377-7.148 9.377-13.26v-86.72c0-4.626-1.97-9.06-5.4-12.163z"/>
</svg>
