<svg id="icon-milan" width="64" height="64" xmlns="http://www.w3.org/2000/svg">
  <path d="M63.964 12.116L60.867.76c-.123-.448-.53-.76-.996-.76-.46 0-.87.312-.99.76l-3.1 11.356c-.023.088-.035.18-.035.27v7.087l-4.13-3.44v-2.615H49.55v2.613l-4.13 3.44v-7.08c0-.092-.01-.183-.035-.27L42.285.76c-.12-.448-.53-.76-.995-.76-.465 0-.873.312-.996.76l-2.54 9.32L32 2.407l-5.753 7.67L23.707.76C23.582.312 23.174 0 22.71 0c-.466 0-.874.312-.996.76l-3.097 11.356c-.024.088-.036.18-.036.27v7.087l-4.122-3.44v-2.615H12.39v2.613l-4.13 3.44v-7.08c0-.092-.01-.183-.036-.27L5.124.76C5.004.313 4.594 0 4.13 0c-.467 0-.874.312-.997.76L.036 12.117c-.024.088-.036.18-.036.27V64h64V12.387c0-.092-.012-.183-.036-.27zm-4.093-7.16l2.03 7.43h-4.05l2.028-7.43zM50.58 17.86l5.162 4.3v4.68H45.42v-4.68l5.16-4.3zM37.16 40.34L32 30.875l-5.16 9.463V18.58h10.32v21.76zm0-23.824H26.84v-2.064h10.32v2.064zM24.775 18.58v28.904h-4.13V14.452h4.13v4.13zM32 35.19L35.17 41c-.958-.47-2.03-.742-3.17-.742-1.14 0-2.212.272-3.17.742L32 35.188zm7.226-16.607v-4.128h4.13v33.032h-4.13V18.58zM41.29 4.957l2.028 7.43h-4.054l2.026-7.43zm-4.387 7.43h-9.806L32 5.85l4.903 6.537zM22.71 4.957l2.027 7.43h-4.054l2.027-7.43zM13.42 17.86l5.16 4.3v4.68H8.26v-4.68l5.16-4.3zM4.13 4.956l2.026 7.43H2.102l2.027-7.43zm2.064 56.98h-4.13V14.45h4.13v16.516h2.064V28.9H18.58v11.44l-5.16-9.464-5.162 9.463v-7.31H6.194v28.9zM16.59 41c-.96-.47-2.032-.742-3.17-.742-1.14 0-2.213.272-3.17.742l3.17-5.812L16.59 41zM8.257 61.935V47.483c0-2.845 2.315-5.16 5.16-5.16 2.847 0 5.163 2.315 5.163 5.16v14.453H8.26zm16.516 0h-4.13V49.548h4.13v12.387zm12.387 0H26.84V47.483c0-2.845 2.314-5.16 5.16-5.16s5.16 2.315 5.16 5.16v14.453zm6.195 0h-4.13V49.548h4.13v12.387zm2.064 0V47.483c0-2.845 2.31-5.16 5.16-5.16s5.16 2.315 5.16 5.16v14.453H45.42zM47.41 41l3.17-5.812L53.75 41c-.957-.47-2.03-.742-3.17-.742-1.138 0-2.21.272-3.17.742zm14.525 20.935h-4.13V37.16h-2.063v3.18l-5.16-9.464-5.163 9.463V28.9h10.32v6.194h2.06V14.452h4.13v47.483z"/>
</svg>
