<?xml version="1.0" encoding="UTF-8"?>
<svg width="1035px" height="1106px" viewBox="0 0 1035 1106" version="1.1" xmlns="http://www.w3.org/2000/svg" xmlns:xlink="http://www.w3.org/1999/xlink">
    <!-- Generator: Sketch 47.1 (45422) - http://www.bohemiancoding.com/sketch -->
    <title>Combined Shape</title>
    <desc>Created with Sketch.</desc>
    <defs>
        <linearGradient x1="124.790239%" y1="55.2176375%" x2="47.5301567%" y2="87.2175694%" id="linearGradient-1">
            <stop stop-color="#FF3526" offset="0%"></stop>
            <stop stop-color="#484D7A" offset="100%"></stop>
        </linearGradient>
    </defs>
    <g id="Home" stroke="none" stroke-width="1" fill="none" fill-rule="evenodd" opacity="0.170170716">
        <g id="home-desktop_7a" fill="url(#linearGradient-1)">
            <path d="M866.443942,828.350286 C855.421445,871.088171 833.287201,907.30597 800.201861,936.906631 C767.04512,966.586698 721.446791,988.335023 663.39795,1002.1869 C605.277708,1016.03877 531.681346,1023 442.573162,1023 C409.8359,1023 375.45642,1021.42071 339.479348,1018.35036 C303.502276,1015.24471 268.11426,1011.04504 233.351001,1005.63663 C198.596668,1000.25469 165.056147,993.911064 132.738365,986.605744 C100.456284,979.300425 67.5405204,969.065919 34,955.972809 L123.538611,789.390856 C191.413985,806.313082 197.373929,807.943034 259.117761,816.801175 C320.861593,825.694608 377.928673,830.070742 430.265451,830.070742 C476.908016,830.070742 513.688347,827.970903 540.713545,823.727113 C567.694118,819.527436 588.337871,812.38975 602.626954,802.35817 C616.960662,792.370704 626.367716,778.130624 630.830265,759.629108 C635.364216,741.154061 637.631191,716.511841 637.631191,685.73774 C637.631191,655.713582 636.167474,632.006585 633.347143,614.669685 C630.446486,597.332785 621.664189,582.757437 606.955627,570.793652 C592.238139,558.873982 568.497377,547.916002 535.795816,537.884422 C503.058555,527.852842 456.058986,515.89788 394.698933,502.072474 C317.791359,484.391483 256.226029,466.092893 210.065419,447.211994 C163.833409,428.322272 128.659595,404.888783 104.535054,376.761538 C80.4105125,348.643115 65.2735453,314.207532 59.1420026,273.36656 C53.0015348,232.631462 49.9313009,182.173583 49.9313009,122.07233 C49.9313009,68.2088315 56.910728,21.2271559 70.7803311,-18.8197597 C84.6945598,-58.8313839 109.033304,-92.1552879 143.787637,-118.729712 C178.550896,-145.268844 224.568704,-165.323182 281.814286,-178.804497 C339.059869,-192.276988 408.577461,-199 490.402765,-199 C550.093824,-199 611.034397,-195.312049 673.197708,-188.006729 C735.316394,-180.692586 796.676447,-169.699316 857.242166,-155.088676 L779.184718,23.5692091 C712.942636,12.0289215 710.219017,10.4456333 649.278444,4.30492982 C588.337871,-1.86224225 532.904084,-4.95906255 483.012783,-4.95906255 C439.672505,-4.95906255 405.72143,-2.40925894 381.213109,2.5491827 C356.669088,7.57820713 338.051332,14.6806013 325.395543,23.9181251 C312.704053,33.1203575 304.510812,46.6281407 300.851522,64.3091319 C297.156531,82.0607058 295.344736,103.2179 295.344736,127.86012 C295.344736,158.669511 296.558549,183.902862 298.968326,203.507234 C301.440578,223.12043 308.625283,239.354474 320.477813,252.00644 C332.330344,264.720167 351.153377,275.678146 376.920137,284.950962 C402.686896,294.188486 440.895243,304.590626 491.625503,316.139736 C579.966129,336.132314 650.501183,355.604344 703.248515,374.449951 C755.995848,393.304381 795.882113,415.846763 822.862686,442.006512 C849.878959,468.192731 866.613519,499.937345 873.173466,537.293291 C879.688788,574.65806 883,621.842662 883,678.776512 C883,735.780945 877.493214,785.612401 866.443942,828.350286 Z" id="Combined-Shape" style="mix-blend-mode: multiply;" transform="translate(458.500000, 412.000000) rotate(144.000000) translate(-458.500000, -412.000000) "></path>
        </g>
    </g>
</svg>