<?xml version="1.0" encoding="UTF-8" standalone="no"?>
<svg width="649px" height="191px" viewBox="0 0 649 191" version="1.1" xmlns="http://www.w3.org/2000/svg" xmlns:xlink="http://www.w3.org/1999/xlink">
    <!-- Generator: Sketch 47.1 (45422) - http://www.bohemiancoding.com/sketch -->
    <title>Artboard</title>
    <desc>Created with Sketch.</desc>
    <defs></defs>
    <g id="Page-1" stroke="none" stroke-width="1" fill="none" fill-rule="evenodd">
        <g id="Artboard" fill="#FFFFFF">
            <path d="M93.27,116.64268 C92.035,121.48668 89.555,125.59168 85.848,128.94668 C82.133,132.31068 77.024,134.77568 70.52,136.34568 C64.008,137.91568 55.762,138.70468 45.778,138.70468 C42.11,138.70468 38.258,138.52568 34.227,138.17768 C30.196,137.82568 26.231,137.34968 22.336,136.73668 C18.442,136.12668 14.684,135.40768 11.063,134.57968 C7.446,133.75168 3.758,132.59168 0,131.10768 L10.0322266,112.226938 C17.6372266,114.144938 18.305,114.32968 25.223,115.33368 C32.141,116.34168 38.535,116.83768 44.399,116.83768 C49.625,116.83768 53.746,116.59968 56.774,116.11868 C59.797,115.64268 62.11,114.83368 63.711,113.69668 C65.317,112.56468 66.371,110.95068 66.871,108.85368 C67.379,106.75968 67.633,103.96668 67.633,100.47868 C67.633,97.0756797 67.469,94.3886797 67.153,92.4236797 C66.828,90.4586797 65.844,88.8066797 64.196,87.4506797 C62.547,86.0996797 59.887,84.8576797 56.223,83.7206797 C52.555,82.5836797 47.289,81.2286797 40.414,79.6616797 C31.797,77.6576797 24.899,75.5836797 19.727,73.4436797 C14.547,71.3026797 10.606,68.6466797 7.903,65.4586797 C5.2,62.2716797 3.504,58.3686797 2.817,53.7396797 C2.129,49.1226797 1.785,43.4036797 1.785,36.5916797 C1.785,30.4866797 2.567,25.1616797 4.121,20.6226797 C5.68,16.0876797 8.407,12.3106797 12.301,9.29867967 C16.196,6.29067967 21.352,4.01767967 27.766,2.48967967 C34.18,0.96267967 41.969,0.20067967 51.137,0.20067967 C57.825,0.20067967 64.653,0.61867967 71.618,1.44667967 C78.578,2.27567967 85.453,3.52167967 92.239,5.17767967 L83.4931641,25.4271328 C76.0711641,24.1191328 75.766,23.9396797 68.938,23.2436797 C62.11,22.5446797 55.899,22.1936797 50.309,22.1936797 C45.453,22.1936797 41.649,22.4826797 38.903,23.0446797 C36.153,23.6146797 34.067,24.4196797 32.649,25.4666797 C31.227,26.5096797 30.309,28.0406797 29.899,30.0446797 C29.485,32.0566797 29.282,34.4546797 29.282,37.2476797 C29.282,40.7396797 29.418,43.5996797 29.688,45.8216797 C29.965,48.0446797 30.77,49.8846797 32.098,51.3186797 C33.426,52.7596797 35.535,54.0016797 38.422,55.0526797 C41.309,56.0996797 45.59,57.2786797 51.274,58.5876797 C61.172,60.8536797 69.075,63.0606797 74.985,65.1966797 C80.895,67.3336797 85.364,69.8886797 88.387,72.8536797 C91.414,75.8216797 93.289,79.4196797 94.024,83.6536797 C94.754,87.8886797 95.125,93.2366797 95.125,99.6896797 C95.125,106.15068 94.508,111.79868 93.27,116.64268 Z" id="Combined-Shape"></path>
            <path d="M139.84,57.993 L194.547,57.993 L194.547,48.567 C194.547,39.578 192.672,32.817 188.914,28.278 C185.152,23.739 178.145,21.469 167.879,21.469 C157.344,21.469 150.035,23.739 145.953,28.278 C141.875,32.817 139.84,39.578 139.84,48.567 L139.84,57.993 Z M139.84,89.016 C139.84,94.078 140.273,98.403 141.148,101.977 C142.016,105.555 143.527,108.391 145.684,110.485 C147.836,112.582 150.883,114.129 154.824,115.133 C158.762,116.141 163.938,116.637 170.355,116.637 C176.957,116.637 183.871,116.094 191.113,115.004 C198.352,113.914 206.508,112.235 215.582,109.965 L219.02,130.383 C211.41,133.09 203.277,135.114 194.617,136.473 C185.957,137.828 177.227,138.504 168.43,138.504 C157.984,138.504 149.141,137.344 141.902,135.032 C134.66,132.719 128.84,129.403 124.441,125.082 C120.043,120.758 116.879,115.571 114.957,109.504 C113.031,103.438 112.07,96.7 112.07,89.282 L112.07,50.141 C112.07,43.246 112.988,36.805 114.82,30.828 C116.652,24.852 119.699,19.528 123.961,14.856 C128.223,10.184 133.973,6.547 141.215,3.926 C148.449,1.313 157.344,0 167.879,0 C178.328,0 187.059,1.375 194.066,4.125 C201.082,6.871 206.578,10.559 210.566,15.188 C214.555,19.809 217.367,25.157 219.02,31.219 C220.668,37.289 221.496,43.766 221.496,50.661 L221.496,79.328 L139.84,79.328 L139.84,89.016 Z" id="Fill-2"></path>
            <path d="M267.594,57.993 L322.305,57.993 L322.305,48.567 C322.305,39.578 320.426,32.817 316.672,28.278 C312.91,23.739 305.902,21.469 295.637,21.469 C285.098,21.469 277.789,23.739 273.711,28.278 C269.633,32.817 267.594,39.578 267.594,48.567 L267.594,57.993 Z M267.594,89.016 C267.594,94.078 268.031,98.403 268.906,101.977 C269.77,105.555 271.281,108.391 273.438,110.485 C275.59,112.582 278.641,114.129 282.578,115.133 C286.52,116.141 291.695,116.637 298.113,116.637 C304.707,116.637 311.629,116.094 318.871,115.004 C326.105,113.914 334.266,112.235 343.336,109.965 L346.777,130.383 C339.168,133.09 331.035,135.114 322.375,136.473 C313.715,137.828 304.984,138.504 296.188,138.504 C285.742,138.504 276.895,137.344 269.656,135.032 C262.418,132.719 256.598,129.403 252.203,125.082 C247.801,120.758 244.641,115.571 242.715,109.504 C240.789,103.438 239.828,96.7 239.828,89.282 L239.828,50.141 C239.828,43.246 240.746,36.805 242.578,30.828 C244.41,24.852 247.453,19.528 251.719,14.856 C255.98,10.184 261.73,6.547 268.969,3.926 C276.207,1.313 285.098,0 295.637,0 C306.086,0 314.813,1.375 321.828,4.125 C328.84,6.871 334.336,10.559 338.32,15.188 C342.309,19.809 345.125,25.157 346.777,31.219 C348.426,37.289 349.254,43.766 349.254,50.661 L349.254,79.328 L267.594,79.328 L267.594,89.016 Z" id="Fill-3"></path>
            <path d="M394.488,2.746 L394.488,142.821 C394.488,147.446 394.215,151.328 393.668,154.469 C393.117,157.61 391.766,160.711 389.613,163.77 C387.453,166.817 384.227,170.313 379.918,174.239 C375.609,178.164 369.063,183.75 360.262,190.996 L345.695,172.668 C351.836,167.43 356.395,163.457 359.371,160.754 C362.352,158.047 364.504,155.719 365.832,153.754 C367.164,151.793 367.965,149.914 368.242,148.125 C368.516,146.332 368.652,144.129 368.652,141.512 L368.652,2.746 L394.488,2.746 Z" id="Fill-4"></path>
            <polygon id="Combined-Shape" points="576.984 138.137 557.973 191.032 584.508 191.032 649.371 3.364 622.582 3.364 589.66 100.161 556.238 3.364 529.949 3.364"></polygon>
            <path d="M456.156,117.188 C434.672,119.145 436.547,98.457 436.547,98.457 C436.547,79.403 457.148,80.391 457.148,80.391 L489.633,80.391 L489.633,105.356 C489.633,105.356 482.367,114.805 456.156,117.188 M514.258,25.004 C512.426,19.59 509.762,15.012 505.5,11.254 C501.238,7.504 495.836,4.692 488.922,2.813 C482,0.942 473.641,0 463.648,0 C456.23,0 448.461,0.543 440.262,1.637 C434.086,2.457 428.086,3.485 422.203,4.727 L425.488,25.469 C427.316,25.153 429.055,24.864 430.684,24.61 C434.027,24.086 437.512,23.649 441.133,23.301 C444.754,22.953 448.355,22.645 451.926,22.383 C455.5,22.125 458.938,21.993 462.238,21.993 C472.77,21.993 479.855,23.43 483.84,26.309 C487.828,29.196 489.633,34.645 489.633,42.68 L489.633,59.383 L459.816,59.383 C439.316,59.383 430.488,62.786 423.066,68.547 C415.645,74.309 411.512,86.36 411.512,100.235 C411.512,112.016 414.465,121.18 420.375,128.207 C426.293,135.231 436.117,138.625 449.863,138.625 C458.57,138.625 466.84,137.493 474.676,135.356 C482.512,133.215 488.535,130.985 492.754,128.192 L493.852,136.411 L516.242,136.411 L516.242,43.723 C516.242,36.653 516.09,30.414 514.258,25.004" id="Fill-6"></path>
        </g>
    </g>
</svg>