<?xml version="1.0" encoding="UTF-8"?>
<svg width="450px" height="486px" viewBox="0 0 450 486" version="1.1" xmlns="http://www.w3.org/2000/svg" xmlns:xlink="http://www.w3.org/1999/xlink">
    <!-- Generator: Sketch 47.1 (45422) - http://www.bohemiancoding.com/sketch -->
    <title>Artboard</title>
    <desc>Created with Sketch.</desc>
    <defs>
        <path d="M225,468 C349.264069,468 450,367.264069 450,243 C450,118.735931 349.264069,18 225,18 C192.5419,18 161.68905,24.8728909 133.817372,37.2427509 C107.030061,49.1313523 82.9964655,66.0975161 62.9380789,86.9197473 C23.9657774,127.376155 0,182.389324 0,243 C0,303.942643 24.2290191,359.226295 63.5797858,399.743685 C104.466537,441.842596 161.678574,468 225,468 Z" id="path-1"></path>
        <mask id="mask-2" maskContentUnits="userSpaceOnUse" maskUnits="objectBoundingBox" x="0" y="0" width="450" height="450" fill="white">
            <use xlink:href="#path-1"></use>
        </mask>
    </defs>
    <g id="Page-1" stroke="none" stroke-width="1" fill="none" fill-rule="evenodd">
        <g id="Artboard">
            <g id="Group-4">
                <use id="Oval-dotted" stroke="#FFDC40" mask="url(#mask-2)" stroke-width="8" stroke-linejoin="round" stroke-dasharray="6" xlink:href="#path-1"></use>
                <path d="M62.9380789,86.9197473 C82.9964655,66.0975161 107.030061,49.1313523 133.817372,37.2427509 C161.68905,24.8728909 192.5419,18 225,18 C349.264069,18 450,118.735931 450,243 C450,367.264069 349.264069,468 225,468 C161.678574,468 104.466537,441.842596 63.5797858,399.743685 L66.4492213,396.956869 C107.803951,439.537633 164.45104,464 225,464 C347.05493,464 446,365.05493 446,243 C446,120.94507 347.05493,22 225,22 C193.735276,22 163.391439,28.4935936 135.440002,40.8988512 C109.302685,52.4989763 85.6552817,69.1030192 65.8188517,89.6948415 L62.9380789,86.9197473 Z" id="Oval" fill="#FFDC40" fill-rule="nonzero"></path>
                <g id="Circle" transform="translate(38.000000, 63.000000)">
                    <path d="M25,50 C11.1928813,50 0,38.8071187 0,25 C0,11.1928813 11.1928813,0 25,0 C38.8071187,0 50,11.1928813 50,25 C50,38.8071187 38.8071187,50 25,50 Z" id="Path" fill="#FFFFFF"></path>
                    <path d="M25,40 C33.2842712,40 40,33.2842712 40,25 C40,16.7157288 33.2842712,10 25,10 C16.7157288,10 10,16.7157288 10,25 C10,33.2842712 16.7157288,40 25,40 Z" id="Path" fill="#FF6600"></path>
                </g>
                <g id="Circle" transform="translate(358.000000, 63.000000)">
                    <path d="M25,50 C11.1928813,50 0,38.8071187 0,25 C0,11.1928813 11.1928813,0 25,0 C38.8071187,0 50,11.1928813 50,25 C50,38.8071187 38.8071187,50 25,50 Z" id="Path" fill="#FFFFFF"></path>
                    <path d="M25,40 C33.2842712,40 40,33.2842712 40,25 C40,16.7157288 33.2842712,10 25,10 C16.7157288,10 10,16.7157288 10,25 C10,33.2842712 16.7157288,40 25,40 Z" id="Path" fill="#FF6600"></path>
                </g>
                <g id="Circle" transform="translate(38.000000, 373.000000)">
                    <path d="M25,50 C11.1928813,50 0,38.8071187 0,25 C0,11.1928813 11.1928813,0 25,0 C38.8071187,0 50,11.1928813 50,25 C50,38.8071187 38.8071187,50 25,50 Z" id="Path" fill="#FFFFFF"></path>
                    <path d="M25,40 C33.2842712,40 40,33.2842712 40,25 C40,16.7157288 33.2842712,10 25,10 C16.7157288,10 10,16.7157288 10,25 C10,33.2842712 16.7157288,40 25,40 Z" id="Path" fill="#FF6600"></path>
                </g>
                <g id="Circle" transform="translate(358.000000, 373.000000)">
                    <path d="M25,50 C11.1928813,50 0,38.8071187 0,25 C0,11.1928813 11.1928813,0 25,0 C38.8071187,0 50,11.1928813 50,25 C50,38.8071187 38.8071187,50 25,50 Z" id="Path" fill="#FFFFFF"></path>
                    <path d="M25,40 C33.2842712,40 40,33.2842712 40,25 C40,16.7157288 33.2842712,10 25,10 C16.7157288,10 10,16.7157288 10,25 C10,33.2842712 16.7157288,40 25,40 Z" id="Path" fill="#FF6600"></path>
                </g>
                <polygon id="Line" fill="#FFDC40" fill-rule="nonzero" transform="translate(224.693179, 19.699929) scale(-1, 1) rotate(-90.000000) translate(-224.693179, -19.699929) " points="241.908541 28.6829225 244.393107 25.5481292 224.784452 10.0067499 204.99325 26.3053864 207.536079 29.3931074 224.832599 15.1489149"></polygon>
                <polygon id="Line-Copy" fill="#FFDC40" fill-rule="nonzero" transform="translate(224.693179, 465.699929) rotate(-90.000000) translate(-224.693179, -465.699929) " points="241.908541 474.682922 244.393107 471.548129 224.784452 456.00675 204.99325 472.305386 207.536079 475.393107 224.832599 461.148915"></polygon>
            </g>
        </g>
    </g>
</svg>