<svg xmlns="http://www.w3.org/2000/svg" viewBox="0 0 290.626 290.626">
  <path fill="#F9BA48" d="M173.438 32.813h117.187v103.125H173.438z"/>
  <path fill="#333" d="M93.75 18.75h9.376v9.375H93.75zm-32.81 0h28.124v9.375H60.94zm37.5 246.094c0-9.047-7.36-16.406-16.407-16.406s-16.406 7.36-16.406 16.406c0 9.047 7.36 16.406 16.406 16.406s16.406-7.36 16.406-16.406zm-16.408 7.03c-3.877 0-7.03-3.154-7.03-7.03s3.154-7.03 7.03-7.03 7.03 3.154 7.03 7.03-3.153 7.03-7.03 7.03z"/>
  <path fill="#333" d="M284.738 172.04c-1.542-3.397-4.453-6.022-7.997-7.208-3.53-1.186-7.434-.83-10.71.952l-10.28 5.62 1.416-4.21c1.336-3.965.68-8.362-1.762-11.765-2.442-3.4-6.4-5.43-10.584-5.43-5.364 0-10.11 3.212-12.104 8.19l-6.098 15.244H212.15l-.26-.127 10.14-5.39c6.103-3.235 9.075-10.384 7.07-16.99-1.154-3.81-3.75-6.913-7.31-8.713-3.547-1.8-7.583-2.072-11.347-.75l-38.456 13.49-7.828 5.12-.098-146.016C164.062 6.31 157.752 0 150 0H14.065C6.31 0 0 6.31 0 14.063v262.5c0 7.753 6.31 14.063 14.063 14.063H150c7.754 0 14.063-6.31 14.063-14.063v-65.686l42.75.06 47.334-9.468 24.29-11.818c6.545-3.225 9.31-10.964 6.3-17.615zm-43.322-10.363c.998-2.512 4.79-2.972 6.366-.778.694.97.88 2.17.497 3.3l-3.11 9.234h-8.46l4.702-11.76zM9.376 14.063c0-2.588 2.1-4.688 4.687-4.688H150c2.588 0 4.69 2.1 4.69 4.692l.013 23.433H9.376V14.063zM150 281.25H14.065c-2.587 0-4.687-2.1-4.687-4.688v-28.125H154.69v28.125c-.002 2.588-2.102 4.688-4.69 4.688zm4.688-42.187H9.376V46.875h145.336l.075 117.188h-28.223v-9.375H60.94v60.938h65.624v-8.344l17.878 3.567 10.247.01v28.2h-.006zm-37.5-75v42.188H70.315v-42.183h46.875zm157.102 17.193l-22.584 11.142-45.816 9.164h-60.014l-19.312-3.844v-24.28h34.33l14.753-9.835 37.898-13.298c1.327-.464 2.752-.37 4.003.267 1.256.638 2.17 1.73 2.578 3.075.703 2.33-.342 4.847-2.494 5.99l-26.194 13.928 18.492 9.248h44.494l16.102-8.798c1.003-.553 2.156-.666 3.244-.29 1.087.36 1.955 1.138 2.428 2.183.914 2.02.075 4.37-1.908 5.348z"/>
  <path fill="#333" d="M201.563 39.844c0-16.8 13.67-30.47 30.47-30.47s30.468 13.67 30.468 30.47V56.25h9.38V39.844C271.878 17.874 254 0 232.03 0s-39.844 17.873-39.844 39.844V56.25h9.375V39.844z"/>
</svg>
