<?xml version="1.0" encoding="UTF-8"?>
<svg width="64px" height="64px" viewBox="0 0 64 64" version="1.1" xmlns="http://www.w3.org/2000/svg" xmlns:xlink="http://www.w3.org/1999/xlink">
    <!-- Generator: Sketch 47.1 (45422) - http://www.bohemiancoding.com/sketch -->
    <title>Artboard</title>
    <desc>Created with Sketch.</desc>
    <defs></defs>
    <g id="Page-1" stroke="none" stroke-width="1" fill="none" fill-rule="evenodd">
        <g id="Artboard" fill-rule="nonzero" fill="#000000">
            <path d="M62.338321,20.7600481 C63.320021,21.032489 63.9990055,21.9270295 63.9990055,22.9496352 L63.9990055,38.29154 L55.3265684,35.8599797 L55.3265684,31.2895748 C55.3265684,27.9438896 52.6191322,25.2232556 49.2896769,25.2232556 C46.0019831,25.2232556 43.3124486,27.8798599 43.2526203,31.1778687 L43.2291801,32.4699969 L38.0393778,31.0125998 L38.0393778,27.1211041 C38.0393778,23.7754189 35.3319416,21.0547849 32.0024864,21.0547849 C28.6730311,21.0547849 25.9655949,23.7754189 25.9655949,27.1211041 L25.9655949,31.013374 L20.7757995,32.4723777 L20.7523524,31.1798675 C20.6925174,27.8814907 18.0036188,25.2252544 14.7152958,25.2252544 C11.3858405,25.2252544 8.67840438,27.9458884 8.67840438,31.2915735 L8.67840438,35.8639773 L0.898586393,38.0452669 L0.00397818216,37.5957823 L0.00397818216,22.9526334 C0.00397818216,21.9304448 0.682503041,21.035831 1.66332873,20.7631405 L21.4424018,15.266501 L21.4424018,10.4412249 C21.4424018,9.58128123 21.9254049,8.79375748 22.6915092,8.40794571 L30.9878421,4.24155997 C31.6249644,3.91965759 32.3780192,3.91965759 33.0130291,4.24049583 L41.3106505,8.40803141 C42.077231,8.79319008 42.5605818,9.5799756 42.5605818,10.4412249 L42.5605818,15.2633327 L62.338321,20.7600481 Z M6.6893133,34.3465417 L6.6893133,31.2915735 C6.6893133,26.8419887 10.2872959,23.2264672 14.7152958,23.2264672 C18.6592054,23.2264672 21.9522719,26.097052 22.6192141,29.8786048 L23.9765039,29.4970308 L23.9765039,27.1211041 C23.9765039,22.6715192 27.5744864,19.0559977 32.0024864,19.0559977 C36.4304863,19.0559977 40.0284689,22.6715192 40.0284689,27.1211041 L40.0284689,29.4958061 L41.3857277,29.8769507 C42.0526601,26.0954523 45.346281,23.2244684 49.2896769,23.2244684 C53.7176769,23.2244684 57.3156594,26.8399899 57.3156594,31.2895748 L57.3156594,34.3425441 L62.0099144,35.6587098 L62.0099144,22.9496352 C62.0099144,22.8267674 61.9289041,22.720039 61.8084508,22.6866108 L40.5714907,16.7843424 L40.5714907,10.4412249 C40.5714907,10.3366668 40.5134593,10.2422048 40.4212299,10.1958653 L32.121624,6.02732986 C32.0466517,5.98945055 31.9563319,5.98945055 31.8792045,6.02841542 L23.5817122,10.195386 C23.4901102,10.2415171 23.4314929,10.337091 23.4314929,10.4412249 L23.4314929,16.7804679 L22.7067743,16.9857468 L22.1092933,17.1549726 L2.19362429,22.689585 C2.07417371,22.7227948 1.99306926,22.8297285 1.99306926,22.9526334 L1.99306926,35.6632651 L6.6893133,34.3465417 Z M46.2262635,37.2497583 L64,42.233783 L64,54.7893158 C64,56.4938862 62.1968965,57.5907072 60.6917376,56.8032828 C57.9057361,55.3472859 54.577984,55.6082947 51.9983493,57.4898812 C47.4117188,60.8362666 41.483033,60.8371832 36.8929832,57.4897693 C33.9197333,55.31963 30.0752939,55.31963 27.1018908,57.4898812 C22.5167042,60.8352132 16.5850935,60.8352132 11.9965835,57.4898122 C9.67353438,55.794507 6.72073977,55.4057175 4.09852317,56.4413074 C2.8341283,58.2199943 0,57.3283776 0,55.1161175 L0,42.2348447 L17.974469,37.1929927 L32,32.9823524 L46.2262635,37.2497583 Z M31.9997275,35.336806 L18.2497988,39.1917799 L1.98909108,43.7521017 L1.98909108,55.1161175 C1.98909108,55.3779942 2.34043114,55.4860697 2.48855087,55.2670643 L2.76732657,54.9871812 L3.07971899,54.6978946 L3.30787443,54.6061878 C6.57958223,53.2886875 10.2762505,53.7640782 13.1650548,55.8722581 C17.0564039,58.7093713 22.0449033,58.7093713 25.9330913,55.8725664 C29.6034057,53.193648 34.3916216,53.193648 38.061615,55.8723323 C41.9543949,58.7112437 46.9398519,58.7104729 50.8298055,55.8723798 C54.0171175,53.5475533 58.1523258,53.2232126 61.6098886,55.0301753 C61.7922398,55.1255724 62.0109089,54.9925569 62.0109089,54.7893158 L62.0109089,43.7511645 L45.6917039,39.1750124 L31.9997275,35.336806 Z M50.5124938,52.4319535 C46.8422461,55.109719 42.0562015,55.109719 38.3860611,52.4320318 C34.4942425,49.5934073 29.5087338,49.5936642 25.6170274,52.4319553 C22.0238003,55.0535104 18.3148595,55.1395631 14.4511185,52.998779 C14.1783359,52.8481364 13.7483082,52.5861336 13.2455584,52.2692015 C13.0641302,52.1548297 12.8856125,52.0409952 12.7480592,51.9522163 C12.6637001,51.8976339 12.6637001,51.8976339 12.6074881,51.8606748 C12.6009911,51.8563932 12.0892003,51.5502572 11.0721159,50.9422669 L11.5859653,50.0816765 L12.0039031,49.3817182 C14.9609164,44.4343501 23.1964244,41.0746375 32.0014918,41.0746375 C40.8050074,41.0746375 49.0403534,44.4334951 51.9993092,49.3791028 L52.9303259,50.9383612 L52.073197,51.4514541 L51.3767539,51.8683576 C51.0760612,52.0482326 50.8445316,52.1959608 50.6402089,52.3387742 L50.5124938,52.4319535 Z M14.3026072,50.5760157 C14.7737048,50.8729943 15.1803904,51.1207755 15.4103317,51.2477604 C18.6246505,53.028718 21.5051102,52.9618872 24.4485338,50.8144173 C29.0371688,47.4678437 34.9658026,47.4675382 39.554591,50.8145203 C42.4818224,52.9501906 46.2516306,52.9832926 49.2049811,50.9138262 L49.3439208,50.8124746 C49.5947676,50.6294908 49.8618751,50.4531943 50.1963221,50.2492524 C47.5653015,46.0879474 40.0730534,43.0734247 32.0014918,43.0734247 C23.9246587,43.0734247 16.4290848,46.0915943 13.8031607,50.2576037 C13.9545194,50.3553281 14.1270785,50.465363 14.3026072,50.5760157 Z" id="Shape"></path>
        </g>
    </g>
</svg>