<?xml version="1.0" encoding="UTF-8"?>
<svg width="50px" height="48px" viewBox="0 0 50 48" version="1.1" xmlns="http://www.w3.org/2000/svg" xmlns:xlink="http://www.w3.org/1999/xlink">
    <!-- Generator: Sketch 47.1 (45422) - http://www.bohemiancoding.com/sketch -->
    <title>002-startup</title>
    <desc>Created with Sketch.</desc>
    <defs></defs>
    <g id="Elements" stroke="none" stroke-width="1" fill="none" fill-rule="evenodd">
        <g id="Components-/-Card" transform="translate(-424.000000, -476.000000)" fill-rule="nonzero">
            <g id="Social-Media-Marketing" transform="translate(62.000000, -951.000000)">
                <g id="Group-5" transform="translate(32.000000, 1426.000000)">
                    <g id="002-startup" transform="translate(330.000000, 1.000000)">
                        <path d="M45.5645161,0.8 L42.7419355,0.8 L42.7419355,7.2 L27.4193548,7.2 L27.4193548,8.8 L27.4193548,10.4 L28.2258065,10.4 C29.1153226,10.4 29.8387097,11.1176 29.8387097,12 L29.8387097,14.8296 C29.3637097,14.556 28.8129032,14.4 28.2258065,14.4 L27.4193548,14.4 L27.4193548,16 L28.2258065,16 C29.1153226,16 29.8387097,16.7176 29.8387097,17.6 L31.4516129,17.6 L31.4516129,12 C31.4516129,10.2352 30.0048387,8.8 28.2258065,8.8 L42.7419355,8.8 L42.7419355,40.8 L43.5483871,40.8 L44.3548387,40.8 L45.5645161,40.8 C47.1209677,40.8 48.3870968,42.056 48.3870968,43.6 C48.3870968,45.144 47.1209677,46.4 45.5645161,46.4 L43.5483871,46.4 L1.61290323,46.4 L1.61290323,8.8 L16.9354839,8.8 C15.1564516,8.8 13.7096774,10.2352 13.7096774,12 L13.7096774,17.6 L15.3225806,17.6 C15.3225806,16.7176 16.0459677,16 16.9354839,16 L17.7419355,16 L17.7419355,14.4 L16.9354839,14.4 C16.3483871,14.4 15.7975806,14.556 15.3225806,14.8296 L15.3225806,12 C15.3225806,11.1176 16.0459677,10.4 16.9354839,10.4 L17.7419355,10.4 L17.7419355,8.8 L17.7419355,7.2 L0,7.2 L0,48 L43.5483871,48 L45.5645161,48 C48.0096774,48 50,46.0256 50,43.6 L50,5.2 C50,2.7744 48.0096774,0.8 45.5645161,0.8 Z M45.5645161,39.2 L44.3548387,39.2 L44.3548387,2.4 L45.5645161,2.4 C47.1209677,2.4 48.3870968,3.656 48.3870968,5.2 L48.3870968,40.2088 C47.6193548,39.5792 46.6354839,39.2 45.5645161,39.2 Z M21.7741935,16 L23.3870968,16 L23.3870968,22.4 L21.7741935,22.4 L21.7741935,16 Z M21.7741935,24 L23.3870968,24 L23.3870968,25.6 L21.7741935,25.6 L21.7741935,24 Z" id="Combined-Shape" fill="#333333"></path>
                        <path d="M24.8185484,1.3184 L22.5806452,0 L20.3427419,1.3184 C18.208871,2.7296 16.9354839,5.0904 16.9354839,7.6336 L16.9354839,16 L28.2258065,16 L28.2258065,7.6336 C28.2258065,5.0904 26.9524194,2.7296 24.8185484,1.3184 Z M22.5806452,10.4 C21.2443548,10.4 20.1612903,9.3256 20.1612903,8 C20.1612903,6.6744 21.2443548,5.6 22.5806452,5.6 C23.9169355,5.6 25,6.6744 25,8 C25,9.3256 23.9169355,10.4 22.5806452,10.4 Z" id="Shape" fill="#F9BA48"></path>
                        <path d="M18.5483871,16 L20.1612903,16 L20.1612903,20 L18.5483871,20 L18.5483871,16 Z M18.5483871,21.6 L20.1612903,21.6 L20.1612903,23.2 L18.5483871,23.2 L18.5483871,21.6 Z M25,16 L26.6129032,16 L26.6129032,20 L25,20 L25,16 Z M25,21.6 L26.6129032,21.6 L26.6129032,23.2 L25,23.2 L25,21.6 Z M16.1290323,30.4 C16.1290323,29.0768 17.2145161,28 18.5483871,28 C19.8822581,28 20.9677419,29.0768 20.9677419,30.4 C20.9677419,30.7968 20.8604839,31.1664 20.6879032,31.4968 L24.8395161,36.2032 C25.1362903,36.0736 25.4620968,36 25.8064516,36 C26.1629032,36 26.4991935,36.0816 26.8048387,36.22 L35.7467742,26.6664 C35.583871,26.344 35.483871,25.9848 35.483871,25.6 C35.483871,24.2768 36.5693548,23.2 37.9032258,23.2 C39.2370968,23.2 40.3225806,24.2768 40.3225806,25.6 C40.3225806,26.9232 39.2370968,28 37.9032258,28 C37.5467742,28 37.2104839,27.9184 36.9056452,27.78 L27.9629032,37.3336 C28.1258065,37.656 28.2258065,38.0152 28.2258065,38.4 C28.2258065,39.7232 27.1403226,40.8 25.8064516,40.8 C24.4725806,40.8 23.3870968,39.7232 23.3870968,38.4 C23.3870968,38.0032 23.4943548,37.6336 23.6669355,37.3032 L19.5153226,32.5968 C19.2185484,32.7256 18.8927419,32.8 18.5483871,32.8 C18.158871,32.8 17.7967742,32.7 17.4701613,32.5368 L8.65080645,40.6128 C8.78951613,40.9152 8.87096774,41.2472 8.87096774,41.6 C8.87096774,42.9232 7.78548387,44 6.4516129,44 C5.11774194,44 4.03225806,42.9232 4.03225806,41.6 C4.03225806,40.2768 5.11774194,39.2 6.4516129,39.2 C6.84112903,39.2 7.20322581,39.3 7.52983871,39.4624 L16.3491935,31.3872 C16.2104839,31.0848 16.1290323,30.7528 16.1290323,30.4 Z M6.4516129,42.4 C6.89677419,42.4 7.25806452,42.0416 7.25806452,41.6 C7.25806452,41.1584 6.89677419,40.8 6.4516129,40.8 C6.00645161,40.8 5.64516129,41.1584 5.64516129,41.6 C5.64516129,42.0416 6.00645161,42.4 6.4516129,42.4 Z M37.9032258,24.8 C37.4580645,24.8 37.0967742,25.1584 37.0967742,25.6 C37.0967742,26.0416 37.4580645,26.4 37.9032258,26.4 C38.3483871,26.4 38.7096774,26.0416 38.7096774,25.6 C38.7096774,25.1584 38.3483871,24.8 37.9032258,24.8 Z M26.6129032,38.4 C26.6129032,37.9584 26.2516129,37.6 25.8064516,37.6 C25.3612903,37.6 25,37.9584 25,38.4 C25,38.8416 25.3612903,39.2 25.8064516,39.2 C26.2516129,39.2 26.6129032,38.8416 26.6129032,38.4 Z M18.5483871,29.6 C18.1032258,29.6 17.7419355,29.9584 17.7419355,30.4 C17.7419355,30.8416 18.1032258,31.2 18.5483871,31.2 C18.9935484,31.2 19.3548387,30.8416 19.3548387,30.4 C19.3548387,29.9584 18.9935484,29.6 18.5483871,29.6 Z M22.5806452,11.2 C20.8016129,11.2 19.3548387,9.7648 19.3548387,8 C19.3548387,6.2352 20.8016129,4.8 22.5806452,4.8 C24.3596774,4.8 25.8064516,6.2352 25.8064516,8 C25.8064516,9.7648 24.3596774,11.2 22.5806452,11.2 Z M22.5806452,6.4 C21.691129,6.4 20.9677419,7.1176 20.9677419,8 C20.9677419,8.8824 21.691129,9.6 22.5806452,9.6 C23.4701613,9.6 24.1935484,8.8824 24.1935484,8 C24.1935484,7.1176 23.4701613,6.4 22.5806452,6.4 Z" id="Combined-Shape" fill="#333333"></path>
                    </g>
                </g>
            </g>
        </g>
    </g>
</svg>