<?xml version="1.0" encoding="UTF-8"?>
<svg width="48px" height="48px" viewBox="0 0 48 48" version="1.1" xmlns="http://www.w3.org/2000/svg" xmlns:xlink="http://www.w3.org/1999/xlink">
    <!-- Generator: Sketch 47.1 (45422) - http://www.bohemiancoding.com/sketch -->
    <title>003-pie-chart</title>
    <desc>Created with Sketch.</desc>
    <defs></defs>
    <g id="Elements" stroke="none" stroke-width="1" fill="none" fill-rule="evenodd">
        <g id="Components-/-Card" transform="translate(-426.000000, -789.000000)" fill-rule="nonzero">
            <g id="Social-Media-Marketing" transform="translate(62.000000, -951.000000)">
                <g id="Group-5" transform="translate(32.000000, 1426.000000)">
                    <g id="003-pie-chart" transform="translate(332.000000, 314.000000)">
                        <path d="M33.2475052,34.7938969 L33.2475052,34.793732 L44.8451959,34.793732 L44.8451959,35.5670103 C44.8451959,42.3881237 39.2951753,47.9381443 32.4740619,47.9381443 C25.6529485,47.9381443 20.1029278,42.3881237 20.1029278,35.5670103 C20.1029278,31.9554639 21.7197526,28.5007835 24.4638351,26.1603299 L20.3002062,21.6494845 L10.8247423,21.6494845 C4.85575258,21.6494845 1.77635684e-15,16.793732 1.77635684e-15,10.8247423 C1.77635684e-15,4.85575258 4.85575258,8.8817842e-16 10.8247423,8.8817842e-16 L24.742268,8.8817842e-16 C30.7114227,8.8817842e-16 35.5670103,4.85575258 35.5670103,10.8247423 C35.5670103,15.6547629 32.4178144,19.8324124 27.8350515,21.1909278 L27.8350515,24.1075464 C29.3063918,23.5120825 30.8875876,23.1958763 32.4742268,23.1958763 L33.2475052,23.1958763 L33.2475052,34.7938969 Z M6.95884536,6.18556701 L28.6083299,6.18556701 L28.6083299,7.73195876 L6.95884536,7.73195876 L6.95884536,6.18556701 Z M6.95884536,10.0516289 L28.6083299,10.0516289 L28.6083299,11.5980206 L6.95884536,11.5980206 L6.95884536,10.0516289 Z M6.95884536,13.9175258 L17.7835876,13.9175258 L17.7835876,15.4639175 L6.95884536,15.4639175 L6.95884536,13.9175258 Z M10.8247423,20.1030928 C10.8247423,20.1030928 20.9768247,20.1030928 20.9768247,20.1030928 L26.2886598,25.8579794 L26.2886598,19.9854845 L26.8839588,19.8447835 C31.0855258,18.8498144 34.0206186,15.1407835 34.0206186,10.8247423 C34.0206186,5.70853608 29.8584742,1.54639175 24.742268,1.54639175 L10.8247423,1.54639175 C5.70853608,1.54639175 1.54639175,5.70853608 1.54639175,10.8247423 C1.54639175,15.9409485 5.70853608,20.1030928 10.8247423,20.1030928 Z M32.4742268,46.3917526 C38.1827629,46.3917526 42.873732,41.9496907 43.2719175,36.3401237 L31.7011134,36.3401237 L31.7011134,24.7699794 C30.3541443,24.8643299 29.0606186,25.2201237 27.8350515,25.8053608 L27.8350515,29.8127835 L25.5239588,27.3091959 C23.0621031,29.372866 21.6494845,32.3381443 21.6494845,35.5670103 C21.6494845,41.536 26.5050722,46.3917526 32.4742268,46.3917526 Z" id="Combined-Shape" fill="#333333"></path>
                        <path d="M47.9381443,33.2475052 L34.793732,33.2475052 L34.793732,20.1030928 L35.5670103,20.1030928 C42.3881237,20.1030928 47.9381443,25.6531134 47.9381443,32.4742268 L47.9381443,33.2475052 Z" id="Shape" fill="#F9BA48"></path>
                    </g>
                </g>
            </g>
        </g>
    </g>
</svg>