<?xml version="1.0" encoding="UTF-8" standalone="no"?>
<svg width="64px" height="63px" viewBox="0 0 64 63" version="1.1" xmlns="http://www.w3.org/2000/svg" xmlns:xlink="http://www.w3.org/1999/xlink">
    <!-- Generator: Sketch 47.1 (45422) - http://www.bohemiancoding.com/sketch -->
    <title>426919</title>
    <desc>Created with Sketch.</desc>
    <defs></defs>
    <g id="Home" stroke="none" stroke-width="1" fill="none" fill-rule="evenodd">
        <g id="home-desktop_7a" transform="translate(-268.000000, -3633.000000)" fill-rule="nonzero">
            <g id="428816" transform="translate(268.000000, 3633.000000)">
                <g id="426919">
                    <g id="Group" fill="#333333">
                        <rect id="Rectangle-path" transform="translate(30.450037, 30.467524) rotate(155.536603) translate(-30.450037, -30.467524) " x="24.2155696" y="29.4347665" width="12.468934" height="2.06551475"></rect>
                        <rect id="Rectangle-path" transform="translate(30.449798, 41.822609) rotate(114.443006) translate(-30.449798, -41.822609) " x="29.4175095" y="35.5841996" width="2.06457662" height="12.4768184"></rect>
                        <path d="M54.6869677,14.6438852 C54.2451613,6.49416393 47.4787097,0 39.2258065,0 C33.6505806,0 28.4738065,3.06634426 25.7465806,7.89668852 C24.8,7.45878689 23.7687742,7.2295082 22.7096774,7.2295082 C20.1796129,7.2295082 17.8467097,8.56490164 16.5450323,10.695541 C15.524129,10.4518033 14.4763871,10.3278689 13.4193548,10.3278689 C6.02012903,10.3278689 0,16.351082 0,23.7540984 C0,31.1571148 6.02012903,37.1803279 13.4193548,37.1803279 L15.483871,37.1803279 L15.483871,35.1147541 L13.4193548,35.1147541 C7.15870968,35.1147541 2.06451613,30.0179508 2.06451613,23.7540984 C2.06451613,17.4902459 7.15870968,12.3934426 13.4193548,12.3934426 C14.5589677,12.3934426 15.6830968,12.5628197 16.7649032,12.8964098 L17.6350968,13.1639016 L18.0098065,12.3345738 C18.8449032,10.4879508 20.6895484,9.29508197 22.7096774,9.29508197 C23.744,9.29508197 24.7411613,9.5997541 25.5938065,10.177082 L26.5899355,10.8494262 L27.104,9.76190164 C29.3171613,5.08647541 34.075871,2.06557377 39.2258065,2.06557377 C46.6250323,2.06557377 52.6451613,8.08878689 52.6472258,15.4277705 L52.6420645,16.4801803 L53.572129,16.5720984 C58.3411613,17.044082 61.9354839,21.0203115 61.9354839,25.8196721 C61.9354839,30.9453934 57.7682581,35.1147541 52.6451613,35.1147541 L48.516129,35.1147541 L48.516129,37.1803279 L52.6451613,37.1803279 C58.9058065,37.1803279 64,32.0835246 64,25.8196721 C64,20.2622459 60.0567742,15.6085082 54.6869677,14.6438852 Z" id="Shape"></path>
                        <rect id="Rectangle-path" x="1.03225806" y="60.9344262" width="1.03225806" height="2.06557377"></rect>
                        <rect id="Rectangle-path" x="3.89883871" y="60.9344262" width="1.83432258" height="2.06557377"></rect>
                        <rect id="Rectangle-path" x="11.2402581" y="60.9344262" width="1.83432258" height="2.06557377"></rect>
                        <rect id="Rectangle-path" x="14.9099355" y="60.9344262" width="1.83432258" height="2.06557377"></rect>
                        <rect id="Rectangle-path" x="7.56954839" y="60.9344262" width="1.83432258" height="2.06557377"></rect>
                        <rect id="Rectangle-path" x="18.5806452" y="60.9344262" width="2.06451613" height="2.06557377"></rect>
                        <rect id="Rectangle-path" x="18.5806452" y="56.8032787" width="2.06451613" height="2.06557377"></rect>
                        <rect id="Rectangle-path" x="18.5806452" y="48.5409836" width="2.06451613" height="2.06557377"></rect>
                        <rect id="Rectangle-path" x="18.5806452" y="52.6721311" width="2.06451613" height="2.06557377"></rect>
                        <rect id="Rectangle-path" x="18.5806452" y="44.4098361" width="2.06451613" height="2.06557377"></rect>
                        <rect id="Rectangle-path" x="18.5806452" y="41.3114754" width="2.06451613" height="1.03278689"></rect>
                        <rect id="Rectangle-path" x="61.9354839" y="60.9344262" width="1.03225806" height="2.06557377"></rect>
                        <rect id="Rectangle-path" x="58.2709677" y="60.9344262" width="1.83432258" height="2.06557377"></rect>
                        <rect id="Rectangle-path" x="47.2547097" y="60.9344262" width="1.83432258" height="2.06557377"></rect>
                        <rect id="Rectangle-path" x="50.9212903" y="60.9344262" width="1.83432258" height="2.06557377"></rect>
                        <rect id="Rectangle-path" x="54.596129" y="60.9344262" width="1.83432258" height="2.06557377"></rect>
                        <rect id="Rectangle-path" x="43.3548387" y="60.9344262" width="2.06451613" height="2.06557377"></rect>
                        <rect id="Rectangle-path" x="43.3548387" y="57.2163934" width="2.06451613" height="1.85901639"></rect>
                        <rect id="Rectangle-path" x="43.3548387" y="53.4983607" width="2.06451613" height="1.86004918"></rect>
                        <rect id="Rectangle-path" x="43.3548387" y="50.6065574" width="2.06451613" height="1.03278689"></rect>
                        <rect id="Rectangle-path" x="30.9677419" y="60.9344262" width="2.06451613" height="2.06557377"></rect>
                        <rect id="Rectangle-path" x="30.9677419" y="52.6721311" width="2.06451613" height="2.06557377"></rect>
                        <rect id="Rectangle-path" x="30.9677419" y="56.8032787" width="2.06451613" height="2.06557377"></rect>
                    </g>
                    <g id="Group" transform="translate(14.451613, 19.622951)" fill="#F9BA48">
                        <path d="M26.8387097,12.3934426 C23.4229677,12.3934426 20.6451613,9.61421311 20.6451613,6.19672131 C20.6451613,2.77922951 23.4229677,0 26.8387097,0 C30.2544516,0 33.0322581,2.77922951 33.0322581,6.19672131 C33.0322581,9.61421311 30.2544516,12.3934426 26.8387097,12.3934426 Z" id="Shape"></path>
                        <path d="M26.8387097,33.0491803 C23.4229677,33.0491803 20.6451613,30.2699508 20.6451613,26.852459 C20.6451613,23.4349672 23.4229677,20.6557377 26.8387097,20.6557377 C30.2544516,20.6557377 33.0322581,23.4349672 33.0322581,26.852459 C33.0322581,30.2699508 30.2544516,33.0491803 26.8387097,33.0491803 Z" id="Shape"></path>
                        <path d="M6.19354839,22.7213115 C2.77780645,22.7213115 0,19.942082 0,16.5245902 C0,13.1070984 2.77780645,10.3278689 6.19354839,10.3278689 C9.60929032,10.3278689 12.3870968,13.1070984 12.3870968,16.5245902 C12.3870968,19.942082 9.60929032,22.7213115 6.19354839,22.7213115 Z" id="Shape"></path>
                    </g>
                    <g id="Group" transform="translate(19.612903, 24.786885)" fill="#333333">
                        <ellipse id="Oval" cx="21.6774194" cy="1.03278689" rx="1.03225806" ry="1.03278689"></ellipse>
                        <ellipse id="Oval" cx="21.6774194" cy="21.6885246" rx="1.03225806" ry="1.03278689"></ellipse>
                        <ellipse id="Oval" cx="1.03225806" cy="11.3606557" rx="1.03225806" ry="1.03278689"></ellipse>
                    </g>
                </g>
            </g>
        </g>
    </g>
</svg>