<svg class="icon-volcano" width="64" height="64" xmlns="http://www.w3.org/2000/svg">
  <path d="M3.698 31.6C1.658 31.6 0 29.943 0 27.904c0-2.04 1.66-3.698 3.698-3.698h13.18c.555 0 1.007.452 1.007 1.01 0 .556-.45 1.007-1.008 1.007H3.697c-.926 0-1.68.754-1.68 1.68 0 .928.754 1.682 1.68 1.682h9.414c.56 0 1.01.452 1.01 1.01 0 .556-.45 1.007-1.01 1.007H3.7zm32.274 30.26c.557 0 1.008.452 1.008 1.01 0 .556-.45 1.007-1.008 1.007H1.01c-.558 0-1.01-.45-1.01-1.008s.452-1.01 1.01-1.01h.74c-.26-.51-.405-1.08-.405-1.68v-.68c0-4.64 3.38-8.41 7.533-8.41 2.642 0 5.102 1.57 6.454 4.07.222-.03.443-.04.664-.04 2.577 0 4.948 1.44 6.34 3.86.28.48.113 1.1-.37 1.37s-1.1.11-1.377-.37c-1.03-1.79-2.75-2.86-4.6-2.86-.34 0-.69.03-1.03.11-.47.1-.95-.15-1.14-.59-.94-2.2-2.84-3.56-4.95-3.56-3.04 0-5.52 2.86-5.52 6.38v.674c0 .926.75 1.68 1.68 1.68h30.93zm4.902-55.942c-.482.28-1.1.114-1.378-.368-.326-.563-.498-1.203-.498-1.85 0-2.04 1.66-3.698 3.698-3.698h17.48c2.04 0 3.7 1.66 3.7 3.698 0 2.04-1.66 3.698-3.7 3.698H53.97c-.558 0-1.01-.45-1.01-1.008 0-.557.452-1.01 1.01-1.01h6.207c.927 0 1.68-.753 1.68-1.68 0-.927-.753-1.68-1.68-1.68h-17.48c-.928 0-1.682.753-1.682 1.68 0 .297.076.58.227.84.28.48.114 1.098-.368 1.378zm-1.196 50.58c-.023.464-.36.852-.818.94-.457.088-.915-.15-1.107-.573-1.036-2.276-3.32-3.746-5.816-3.746s-4.78 1.47-5.815 3.74c-.166.36-.528.59-.917.59-.063 0-.126-.01-.19-.02-.457-.09-.795-.48-.818-.94-.168-3.4-2.97-6.07-6.38-6.07-.404 0-.815.04-1.22.11-.448.08-.898-.14-1.098-.55-1.08-2.22-3.29-3.6-5.75-3.6-3.15 0-5.8 2.24-6.31 5.34-.09.55-.61.92-1.16.83-.55-.09-.92-.61-.83-1.16.57-3.5 3.23-6.18 6.59-6.86l13.35-22.51.02-.04.21-.36c.8-1.36 1.23-2.91 1.23-4.49 0-1.3 1.05-2.35 2.35-2.35h13.45c1.3 0 2.35 1.06 2.35 2.36 0 1.58.42 3.13 1.23 4.49l1.72 2.91c.28.48.12 1.1-.36 1.38-.48.28-1.1.12-1.38-.36l-1.72-2.9c-.99-1.67-1.52-3.58-1.52-5.52 0-.19-.15-.34-.336-.34H25.21c-.187 0-.337.15-.337.33 0 1.51-.32 2.99-.926 4.37h2.603c.555 0 1.006.45 1.006 1.01v5.38c0 .92.755 1.68 1.68 1.68.93 0 1.683-.76 1.683-1.68v-5.38c0-.56.45-1.01 1-1.01h5.8c.55 0 1.01.45 1.01 1.01 0 .55-.45 1.01-1.01 1.01h-4.79v4.37c0 2.04-1.66 3.7-3.7 3.7s-3.7-1.66-3.7-3.7v-4.37h-2.7L10.48 44.41c2.665.235 5.093 1.753 6.476 4.045.287-.03.575-.044.862-.044 3.6 0 6.688 2.26 7.88 5.47 1.57-1.73 3.828-2.78 6.24-2.78 2.41 0 4.67 1.05 6.24 2.78 1.192-3.21 4.278-5.47 7.88-5.47.286 0 .574.02.862.05 1.382-2.29 3.81-3.81 6.476-4.04l-4.166-7.03c-.283-.48-.125-1.1.354-1.38.48-.28 1.098-.12 1.382.36l4.86 8.21c2.998.63 5.502 2.88 6.374 5.89.155.54-.153 1.1-.688 1.25-.535.16-1.095-.15-1.25-.69-.785-2.71-3.308-4.6-6.136-4.6-2.468 0-4.67 1.38-5.75 3.6-.2.41-.65.64-1.098.55-.405-.08-.815-.12-1.22-.12-3.41 0-6.212 2.67-6.38 6.07zM25.214 11.43c-2.04 0-3.698-1.66-3.698-3.698 0-2.04 1.66-3.698 3.698-3.698h11.598c.557 0 1.01.45 1.01 1.01 0 .556-.453 1.007-1.01 1.007H25.214c-.927 0-1.68.76-1.68 1.69s.753 1.68 1.68 1.68h22.86c.927 0 1.68-.75 1.68-1.68 0-.29-.075-.58-.225-.84-.28-.48-.12-1.1.36-1.37.48-.28 1.1-.11 1.38.37.32.57.5 1.21.5 1.85 0 2.04-1.66 3.7-3.7 3.7H25.21zm37.653 50.428c.557 0 1.008.452 1.008 1.01 0 .556-.45 1.007-1.008 1.007H39.94c-.558 0-1.01-.45-1.01-1.008 0-.557.452-1.01 1.01-1.01h18.89c.927 0 1.68-.753 1.68-1.68v-.672c0-3.522-2.473-6.387-5.515-6.387-2.11 0-4.005 1.363-4.946 3.558-.19.445-.67.692-1.15.59-.34-.076-.69-.114-1.03-.114-1.91 0-3.65 1.12-4.67 2.996-.27.49-.88.67-1.37.404-.49-.265-.67-.878-.41-1.367 1.38-2.536 3.78-4.05 6.44-4.05.22 0 .44.01.66.033 1.35-2.495 3.81-4.068 6.45-4.068 4.15 0 7.53 3.77 7.53 8.405v.672c0 .605-.15 1.177-.41 1.68h.74zm-2.69-34.963c2.04 0 3.698 1.66 3.698 3.698 0 2.04-1.66 3.698-3.698 3.698H44.04c-2.04 0-3.698-1.65-3.698-3.69s1.66-3.7 3.698-3.7h11.016c.557 0 1.008.45 1.008 1.01s-.45 1.01-1.008 1.01H44.04c-.927 0-1.68.76-1.68 1.68 0 .93.753 1.68 1.68 1.68h16.137c.927 0 1.68-.75 1.68-1.68 0-.92-.753-1.68-1.68-1.68h-1.445c-.557 0-1.01-.45-1.01-1.01 0-.55.453-1.01 1.01-1.01h1.445zM30.93 37.317c0-.558.45-1.01 1.008-1.01.557 0 1.008.452 1.008 1.01V47.67c0 .558-.45 1.01-1.008 1.01-.557 0-1.01-.452-1.01-1.01V37.318zm-8.078-1.86c.284-.478.903-.637 1.382-.353.48.284.637.903.353 1.382l-4.78 8.068c-.19.318-.525.495-.87.495-.174 0-.352-.05-.513-.15-.48-.29-.637-.91-.353-1.38l4.79-8.07zm16.436 1.03c-.284-.48-.126-1.1.353-1.383.48-.284 1.1-.125 1.39.354l4.78 8.068c.29.48.13 1.098-.35 1.382-.16.096-.33.14-.51.14-.34 0-.68-.176-.87-.494l-4.78-8.068z"/>
</svg>
