<?xml version="1.0" encoding="UTF-8" standalone="no"?>
<svg width="64px" height="64px" viewBox="0 0 64 64" version="1.1" xmlns="http://www.w3.org/2000/svg" xmlns:xlink="http://www.w3.org/1999/xlink">
    <!-- Generator: Sketch 47.1 (45422) - http://www.bohemiancoding.com/sketch -->
    <title>Group</title>
    <desc>Created with Sketch.</desc>
    <defs></defs>
    <g id="Home" stroke="none" stroke-width="1" fill="none" fill-rule="evenodd">
        <g id="home-desktop_7a" transform="translate(-946.000000, -3642.000000)" fill-rule="nonzero">
            <g id="428816" transform="translate(268.000000, 3633.000000)">
                <g id="Group" transform="translate(677.836066, 8.836066)">
                    <path d="M34.7868852,8.55737705 C34.7868852,3.92209836 31.0287213,0.163934426 26.3934426,0.163934426 C21.7581639,0.163934426 18,3.92209836 18,8.55737705 L10.6557377,8.55737705 C9.49639344,8.55737705 8.55737705,9.49639344 8.55737705,10.6557377 L8.55737705,18 C3.92209836,18 0.163934426,21.7581639 0.163934426,26.3934426 C0.163934426,31.0287213 3.92209836,34.7868852 8.55737705,34.7868852 L8.55737705,42.1311475 C8.55737705,43.2904918 9.49639344,44.2295082 10.6557377,44.2295082 L42.1311475,44.2295082 C43.2904918,44.2295082 44.2295082,43.2904918 44.2295082,42.1311475 L44.2295082,10.6557377 C44.2295082,9.49639344 43.2904918,8.55737705 42.1311475,8.55737705 L34.7868852,8.55737705 Z" id="Shape" fill="#F9BA48"></path>
                    <path d="M55.7704918,27.501377 L55.7704918,21.147541 C55.7704918,19.4121967 54.3582951,18 52.6229508,18 L21.147541,18 C19.4121967,18 18,19.4121967 18,21.147541 L18,52.6229508 C18,54.3582951 19.4121967,55.7704918 21.147541,55.7704918 L27.501377,55.7704918 C28.024918,60.4855082 32.0327869,64.1639344 36.8852459,64.1639344 C41.7377049,64.1639344 45.7455738,60.4855082 46.2691148,55.7704918 L52.6229508,55.7704918 C54.3582951,55.7704918 55.7704918,54.3582951 55.7704918,52.6229508 L55.7704918,46.2691148 C60.4855082,45.7455738 64.1639344,41.7377049 64.1639344,36.8852459 C64.1639344,32.0327869 60.4855082,28.024918 55.7704918,27.501377 Z M54.7213115,44.2295082 L53.6721311,44.2295082 L53.6721311,52.6229508 C53.6721311,53.2020984 53.2020984,53.6721311 52.6229508,53.6721311 L44.2295082,53.6721311 L44.2295082,54.7213115 C44.2295082,58.7700984 40.9340328,62.0655738 36.8852459,62.0655738 C32.836459,62.0655738 29.5409836,58.7700984 29.5409836,54.7213115 L29.5409836,53.6721311 L21.147541,53.6721311 C20.5683934,53.6721311 20.0983607,53.2020984 20.0983607,52.6229508 L20.0983607,21.147541 C20.0983607,20.5683934 20.5683934,20.0983607 21.147541,20.0983607 L52.6229508,20.0983607 C53.2020984,20.0983607 53.6721311,20.5683934 53.6721311,21.147541 L53.6721311,29.5409836 L54.7213115,29.5409836 C58.7700984,29.5409836 62.0655738,32.836459 62.0655738,36.8852459 C62.0655738,40.9340328 58.7700984,44.2295082 54.7213115,44.2295082 Z" id="Shape" fill="#333333"></path>
                    <path d="M46.3278689,36.8852459 C46.3278689,31.6781639 42.0923279,27.442623 36.8852459,27.442623 C31.6781639,27.442623 27.442623,31.6781639 27.442623,36.8852459 C27.442623,39.5889836 28.583082,42.1238033 30.5901639,43.9168525 L30.5901639,45.2786885 L29.5409836,45.2786885 L29.5409836,47.3770492 L30.5901639,47.3770492 L30.5901639,51.5737705 L43.1803279,51.5737705 L43.1803279,47.3770492 L44.2295082,47.3770492 L44.2295082,45.2786885 L43.1803279,45.2786885 L43.1803279,43.9168525 C45.1874098,42.1238033 46.3278689,39.5889836 46.3278689,36.8852459 Z M41.0819672,49.4754098 L32.6885246,49.4754098 L32.6885246,47.3770492 L41.0819672,47.3770492 L41.0819672,49.4754098 Z M35.8360656,36.8852459 C35.8360656,36.3060984 36.3060984,35.8360656 36.8852459,35.8360656 C37.4643934,35.8360656 37.9344262,36.3060984 37.9344262,36.8852459 C37.9344262,37.4643934 37.4643934,37.9344262 36.8852459,37.9344262 C36.3060984,37.9344262 35.8360656,37.4643934 35.8360656,36.8852459 Z M37.9344262,45.2786885 L37.9344262,39.8397377 C39.1525246,39.405377 40.0327869,38.2512787 40.0327869,36.8852459 C40.0327869,35.1499016 38.6205902,33.7377049 36.8852459,33.7377049 C35.1499016,33.7377049 33.7377049,35.1499016 33.7377049,36.8852459 C33.7377049,38.2512787 34.6179672,39.405377 35.8360656,39.8397377 L35.8360656,45.2786885 L32.6885246,45.2786885 L32.6885246,42.9285246 L32.2961311,42.6127213 C30.5450492,41.2078689 29.5409836,39.1210492 29.5409836,36.8852459 C29.5409836,32.836459 32.836459,29.5409836 36.8852459,29.5409836 C40.9340328,29.5409836 44.2295082,32.836459 44.2295082,36.8852459 C44.2295082,39.1210492 43.2254426,41.2078689 41.4743607,42.6127213 L41.0819672,42.9285246 L41.0819672,45.2786885 L37.9344262,45.2786885 Z" id="Shape" fill="#333333"></path>
                    <rect id="Rectangle-path" fill="#333333" x="35.8360656" y="22.1967213" width="2.09836066" height="3.14754098"></rect>
                    <rect id="Rectangle-path" fill="#333333" transform="translate(30.328492, 25.526115) rotate(149.994310) translate(-30.328492, -25.526115) " x="29.2792825" y="23.9522348" width="2.09841942" height="3.14776028"></rect>
                    <rect id="Rectangle-path" fill="#333333" transform="translate(25.531104, 30.324083) rotate(120.005690) translate(-25.531104, -30.324083) " x="24.4818945" y="28.7502026" width="2.09841942" height="3.14776028"></rect>
                    <rect id="Rectangle-path" fill="#333333" x="22.1967213" y="35.8360656" width="3.14754098" height="2.09836066"></rect>
                    <rect id="Rectangle-path" fill="#333333" transform="translate(25.522878, 43.444377) rotate(150.007099) translate(-25.522878, -43.444377) " x="23.9490843" y="42.395181" width="3.14758697" height="2.09839131"></rect>
                    <rect id="Rectangle-path" fill="#333333" transform="translate(48.243775, 43.446138) rotate(120.005690) translate(-48.243775, -43.446138) " x="47.1945656" y="41.8722575" width="2.09841942" height="3.14776028"></rect>
                    <rect id="Rectangle-path" fill="#333333" x="48.4262295" y="35.8360656" width="3.14754098" height="2.09836066"></rect>
                    <rect id="Rectangle-path" fill="#333333" transform="translate(48.247532, 30.330306) rotate(150.007099) translate(-48.247532, -30.330306) " x="46.6737388" y="29.2811099" width="3.14758697" height="2.09839131"></rect>
                    <rect id="Rectangle-path" fill="#333333" transform="translate(43.446441, 25.531951) rotate(119.992901) translate(-43.446441, -25.531951) " x="41.8726475" y="24.482755" width="3.14758697" height="2.09839131"></rect>
                </g>
            </g>
        </g>
    </g>
</svg>