<?xml version="1.0" encoding="UTF-8" standalone="no"?>
<svg width="64px" height="68px" viewBox="0 0 64 68" version="1.1" xmlns="http://www.w3.org/2000/svg" xmlns:xlink="http://www.w3.org/1999/xlink">
    <!-- Generator: Sketch 47.1 (45422) - http://www.bohemiancoding.com/sketch -->
    <title>427911</title>
    <desc>Created with Sketch.</desc>
    <defs></defs>
    <g id="Home" stroke="none" stroke-width="1" fill="none" fill-rule="evenodd">
        <g id="home-desktop_7a" transform="translate(-608.000000, -3638.000000)" fill-rule="nonzero">
            <g id="427911" transform="translate(608.000000, 3638.000000)">
                <rect id="Rectangle-path" fill="#F9BA48" x="3.32029247" y="11.0344828" width="57.255914" height="33.1034483"></rect>
                <g id="Group" fill="#333333">
                    <path d="M35.0488774,4.4137931 C35.1721978,4.06731034 35.2514753,3.69875862 35.2514753,3.31034483 C35.2514753,1.48524138 33.769428,0 31.9482495,0 C30.127071,0 28.6450237,1.48524138 28.6450237,3.31034483 C28.6450237,3.69875862 28.7243011,4.06731034 28.8476215,4.4137931 L0.0170666667,4.4137931 L0.0170666667,11.0344828 L63.8794323,11.0344828 L63.8794323,4.4137931 L35.0488774,4.4137931 Z M30.8471742,3.31034483 C30.8471742,2.70124138 31.3404559,2.20689655 31.9482495,2.20689655 C32.556043,2.20689655 33.0493247,2.70124138 33.0493247,3.31034483 C33.0493247,3.91944828 32.556043,4.4137931 31.9482495,4.4137931 C31.3404559,4.4137931 30.8471742,3.91944828 30.8471742,3.31034483 Z M61.6772817,8.82758621 L2.2192172,8.82758621 L2.2192172,6.62068966 L61.6772817,6.62068966 L61.6772817,8.82758621 Z" id="Shape"></path>
                    <path d="M0.0170666667,50.7586207 L22.2543828,50.7586207 L12.2962581,66.7255172 L14.1625806,67.8962759 L24.8507183,50.7586207 L30.8471742,50.7586207 L30.8471742,67.3103448 L33.0493247,67.3103448 L33.0493247,50.7586207 L39.0457806,50.7586207 L49.7328172,67.8951724 L51.5991398,66.7244138 L41.6421161,50.7586207 L63.8794323,50.7586207 L63.8794323,44.137931 L0.0170666667,44.137931 L0.0170666667,50.7586207 Z M2.2192172,46.3448276 L61.6772817,46.3448276 L61.6772817,48.5517241 L2.2192172,48.5517241 L2.2192172,46.3448276 Z" id="Shape"></path>
                    <path d="M8.82566882,38.6206897 L8.82566882,41.9310345 L15.4321204,41.9310345 L15.4321204,38.6206897 C15.4321204,37.4686897 14.840843,36.4557241 13.947871,35.862069 C14.840843,35.2684138 15.4321204,34.2554483 15.4321204,33.1034483 C15.4321204,31.6667586 14.5083183,30.4529655 13.2299699,29.9961379 L13.2299699,28.6896552 L24.2407226,28.6896552 L24.2407226,29.9961379 C22.9623742,30.4529655 22.038572,31.6667586 22.038572,33.1034483 C22.038572,34.2554483 22.6298495,35.2684138 23.5228215,35.862069 C22.6298495,36.4557241 22.038572,37.4686897 22.038572,38.6206897 L22.038572,41.9310345 L28.6450237,41.9310345 L28.6450237,38.6206897 C28.6450237,37.4686897 28.0537462,36.4557241 27.1607742,35.862069 C28.0537462,35.2684138 28.6450237,34.2554483 28.6450237,33.1034483 C28.6450237,31.6667586 27.7212215,30.4529655 26.4428731,29.9961379 L26.4428731,28.6896552 L37.4536258,28.6896552 L37.4536258,29.9961379 C36.1752774,30.4529655 35.2514753,31.6667586 35.2514753,33.1034483 C35.2514753,34.2554483 35.8427527,35.2684138 36.7357247,35.862069 C35.8427527,36.4557241 35.2514753,37.4686897 35.2514753,38.6206897 L35.2514753,41.9310345 L41.8579269,41.9310345 L41.8579269,38.6206897 C41.8579269,37.4686897 41.2666495,36.4557241 40.3736774,35.862069 C41.2666495,35.2684138 41.8579269,34.2554483 41.8579269,33.1034483 C41.8579269,31.6667586 40.9341247,30.4529655 39.6557763,29.9961379 L39.6557763,28.6896552 L50.666529,28.6896552 L50.666529,29.9961379 C49.3881806,30.4529655 48.4643785,31.6667586 48.4643785,33.1034483 C48.4643785,34.2554483 49.0556559,35.2684138 49.948628,35.862069 C49.0556559,36.4557241 48.4643785,37.4686897 48.4643785,38.6206897 L48.4643785,41.9310345 L55.0708301,41.9310345 L55.0708301,38.6206897 C55.0708301,37.4686897 54.4795527,36.4557241 53.5865806,35.862069 C54.4795527,35.2684138 55.0708301,34.2554483 55.0708301,33.1034483 C55.0708301,31.6667586 54.147028,30.4529655 52.8686796,29.9961379 L52.8686796,26.4827586 L33.0493247,26.4827586 L33.0493247,24.2758621 L35.2514753,24.2758621 L35.2514753,20.9655172 C35.2514753,19.8135172 34.6601978,18.8005517 33.7672258,18.2068966 C34.6601978,17.6132414 35.2514753,16.6002759 35.2514753,15.4482759 C35.2514753,13.6231724 33.769428,12.137931 31.9482495,12.137931 C30.127071,12.137931 28.6450237,13.6231724 28.6450237,15.4482759 C28.6450237,16.6002759 29.2363011,17.6132414 30.1292731,18.2068966 C29.2363011,18.8005517 28.6450237,19.8135172 28.6450237,20.9655172 L28.6450237,24.2758621 L30.8471742,24.2758621 L30.8471742,26.4827586 L11.0278194,26.4827586 L11.0278194,29.9961379 C9.74947097,30.4529655 8.82566882,31.6667586 8.82566882,33.1034483 C8.82566882,34.2554483 9.41694624,35.2684138 10.3099183,35.862069 C9.41694624,36.4557241 8.82566882,37.4686897 8.82566882,38.6206897 Z M25.3417978,32 C25.9495914,32 26.4428731,32.4943448 26.4428731,33.1034483 C26.4428731,33.7125517 25.9495914,34.2068966 25.3417978,34.2068966 C24.7340043,34.2068966 24.2407226,33.7125517 24.2407226,33.1034483 C24.2407226,32.4943448 24.7340043,32 25.3417978,32 Z M26.4428731,39.7241379 L24.2407226,39.7241379 L24.2407226,38.6206897 C24.2407226,38.0115862 24.7340043,37.5172414 25.3417978,37.5172414 C25.9495914,37.5172414 26.4428731,38.0115862 26.4428731,38.6206897 L26.4428731,39.7241379 Z M38.5547011,32 C39.1624946,32 39.6557763,32.4943448 39.6557763,33.1034483 C39.6557763,33.7125517 39.1624946,34.2068966 38.5547011,34.2068966 C37.9469075,34.2068966 37.4536258,33.7125517 37.4536258,33.1034483 C37.4536258,32.4943448 37.9469075,32 38.5547011,32 Z M39.6557763,39.7241379 L37.4536258,39.7241379 L37.4536258,38.6206897 C37.4536258,38.0115862 37.9469075,37.5172414 38.5547011,37.5172414 C39.1624946,37.5172414 39.6557763,38.0115862 39.6557763,38.6206897 L39.6557763,39.7241379 Z M51.7676043,32 C52.3753978,32 52.8686796,32.4943448 52.8686796,33.1034483 C52.8686796,33.7125517 52.3753978,34.2068966 51.7676043,34.2068966 C51.1598108,34.2068966 50.666529,33.7125517 50.666529,33.1034483 C50.666529,32.4943448 51.1598108,32 51.7676043,32 Z M52.8686796,39.7241379 L50.666529,39.7241379 L50.666529,38.6206897 C50.666529,38.0115862 51.1598108,37.5172414 51.7676043,37.5172414 C52.3753978,37.5172414 52.8686796,38.0115862 52.8686796,38.6206897 L52.8686796,39.7241379 Z M33.0493247,22.0689655 L30.8471742,22.0689655 L30.8471742,20.9655172 C30.8471742,20.3564138 31.3404559,19.862069 31.9482495,19.862069 C32.556043,19.862069 33.0493247,20.3564138 33.0493247,20.9655172 L33.0493247,22.0689655 Z M31.9482495,14.3448276 C32.556043,14.3448276 33.0493247,14.8391724 33.0493247,15.4482759 C33.0493247,16.0573793 32.556043,16.5517241 31.9482495,16.5517241 C31.3404559,16.5517241 30.8471742,16.0573793 30.8471742,15.4482759 C30.8471742,14.8391724 31.3404559,14.3448276 31.9482495,14.3448276 Z M13.2299699,39.7241379 L11.0278194,39.7241379 L11.0278194,38.6206897 C11.0278194,38.0115862 11.5211011,37.5172414 12.1288946,37.5172414 C12.7366882,37.5172414 13.2299699,38.0115862 13.2299699,38.6206897 L13.2299699,39.7241379 Z M12.1288946,32 C12.7366882,32 13.2299699,32.4943448 13.2299699,33.1034483 C13.2299699,33.7125517 12.7366882,34.2068966 12.1288946,34.2068966 C11.5211011,34.2068966 11.0278194,33.7125517 11.0278194,33.1034483 C11.0278194,32.4943448 11.5211011,32 12.1288946,32 Z" id="Shape"></path>
                </g>
            </g>
        </g>
    </g>
</svg>